<?xml version="1.0" encoding="UTF-8"?>
<svg version="1.1" xmlns="http://www.w3.org/2000/svg" width="410" height="160">
<path d="M0 0 C0.96484375 1.62890625 0.96484375 1.62890625 1.9375 3.875 C2.43378906 4.97714844 2.93007812 6.07929687 3.44140625 7.21484375 C4.51189217 9.64085053 5.51856337 12.072728 6.5078125 14.53515625 C7.8264304 17.86200122 7.8264304 17.86200122 9.6796875 20.62109375 C10.09476563 21.36488281 10.50984375 22.10867187 10.9375 22.875 C10.4425 24.36 10.4425 24.36 9.9375 25.875 C8.9475 25.875 7.9575 25.875 6.9375 25.875 C6.9375 29.505 6.9375 33.135 6.9375 36.875 C4.2975 36.875 1.6575 36.875 -1.0625 36.875 C-2.1786656 40.58929898 -2.3749195 44.26661508 -2.625 48.125 C-2.70878906 49.38828125 -2.79257812 50.6515625 -2.87890625 51.953125 C-2.96978516 53.39945313 -2.96978516 53.39945313 -3.0625 54.875 C-2.0725 55.205 -1.0825 55.535 -0.0625 55.875 C0.60416667 57.20833333 1.27083333 58.54166667 1.9375 59.875 C3.7418971 61.34382138 3.7418971 61.34382138 5.8125 62.625 C12.40654367 67.40329251 14.25596572 73.59630572 15.6328125 81.3984375 C16.06745673 84.93131496 16.0691859 88.31948057 15.9375 91.875 C14.9475 91.875 13.9575 91.875 12.9375 91.875 C12.958125 93.009375 12.97875 94.14375 13 95.3125 C12.9375 98.875 12.9375 98.875 11.9375 99.875 C10.52766205 100.00233929 9.11172641 100.06322898 7.6965332 100.09619141 C6.34426384 100.13095078 6.34426384 100.13095078 4.9646759 100.16641235 C3.98246567 100.1862619 3.00025543 100.20611145 1.98828125 100.2265625 C0.98290817 100.24971527 -0.0224649 100.27286804 -1.05830383 100.29672241 C-3.19270607 100.3444584 -5.32716575 100.38968038 -7.46166992 100.43261719 C-10.7188131 100.49936093 -13.97555562 100.57725377 -17.23242188 100.65625 C-19.30467289 100.70119939 -21.3769383 100.74549122 -23.44921875 100.7890625 C-24.42130783 100.81296051 -25.39339691 100.83685852 -26.39494324 100.86148071 C-31.08650243 100.94775812 -35.44650645 100.87333943 -40.0625 99.875 C-40.62553171 84.46982694 -40.66540093 69.81804038 -31.0625 56.875 C-29.35432737 54.12972256 -28.0854031 51.9437093 -27.0625 48.875 C-26.4025 48.875 -25.7425 48.875 -25.0625 48.875 C-25.0625 44.915 -25.0625 40.955 -25.0625 36.875 C-26.7125 36.875 -28.3625 36.875 -30.0625 36.875 C-34.97399523 32.07772559 -37.08691016 27.47665622 -37.375 20.5625 C-37.14780611 13.44774409 -35.63615919 7.92991628 -30.375 2.9375 C-22.93276516 -2.86583114 -8.11139052 -5.62831179 0 0 Z " fill="#4A494E" transform="translate(64.0625,30.125)"/>
<path d="M0 0 C3.44626615 3.76029507 3.5114617 6.65477284 3.3515625 11.58984375 C2.84446859 15.0662542 1.63533132 16.72079454 -1 19 C-3.75 20.3125 -3.75 20.3125 -6 21 C-6 21.66 -6 22.32 -6 23 C-4.948125 23.0928125 -4.948125 23.0928125 -3.875 23.1875 C-0.09356592 24.25616615 2.52104982 26.00150936 5 29 C7.1314114 33.19117872 7.38287511 36.78927336 5.9375 41.25 C4.2897785 44.91080733 2.49412307 46.90352616 -1 49 C-9 52 -9 52 -35 52 C-35 33.19 -35 14.38 -35 -5 C-23.07325568 -6.08424948 -10.38956108 -6.92637406 0 0 Z M-26 1 C-26 7.6 -26 14.2 -26 21 C-15.92258454 21.13969775 -15.92258454 21.13969775 -8.1875 16.75 C-6.25193391 13.89758682 -6.11723412 11.39978962 -6 8 C-7.8058604 3.43223545 -10.75992717 1.33636666 -15 -1 C-19.57233568 -1.18314742 -19.57233568 -1.18314742 -26 1 Z M-26 24 C-26 31.92 -26 39.84 -26 48 C-16.81184038 48.86885723 -16.81184038 48.86885723 -8.25 46.25 C-5.15059669 43.15059669 -4.19050452 41.46053464 -3.625 37.125 C-4.11177481 33.06854321 -5.3727654 31.11119887 -8 28 C-14.16606583 24.19540619 -18.75915646 24 -26 24 Z " fill="#084AA8" transform="translate(122,63)"/>
<path d="M0 0 C27.54545455 0 27.54545455 0 35.0625 5.0625 C37.95833205 7.95833205 38.19859125 9.81370347 38.3125 13.8125 C38.27134563 17.37749763 38.10085173 18.82070803 36.3125 22 C33.93593772 24.05540521 31.9912103 25.08601908 29 26 C29 26.66 29 27.32 29 28 C30.051875 28.0928125 30.051875 28.0928125 31.125 28.1875 C34.90643408 29.25616615 37.52104982 31.00150936 40 34 C42.1314114 38.19117872 42.38287511 41.78927336 40.9375 46.25 C39.2897785 49.91080733 37.49412307 51.90352616 34 54 C26 57 26 57 0 57 C0 38.19 0 19.38 0 0 Z M9 6 C9 12.6 9 19.2 9 26 C19.07741546 26.13969775 19.07741546 26.13969775 26.8125 21.75 C28.74806609 18.89758682 28.88276588 16.39978962 29 13 C27.1941396 8.43223545 24.24007283 6.33636666 20 4 C15.42766432 3.81685258 15.42766432 3.81685258 9 6 Z M9 29 C9 36.92 9 44.84 9 53 C18.18815962 53.86885723 18.18815962 53.86885723 26.75 51.25 C29.84940331 48.15059669 30.80949548 46.46053464 31.375 42.125 C30.88822519 38.06854321 29.6272346 36.11119887 27 33 C20.83393417 29.19540619 16.24084354 29 9 29 Z " fill="#0749A8" transform="translate(257,58)"/>
<path d="M0 0 C3.34258214 0.26517353 6.66945542 0.61229285 10 1 C10.76441406 1.07605469 11.52882813 1.15210937 12.31640625 1.23046875 C19.26365731 2.28684861 24.21804465 5.96002548 29 11 C33.42175006 18.00498299 34.13715403 24.90791244 34 33 C33.41992188 33.02578125 32.83984375 33.0515625 32.2421875 33.078125 C26.77236619 33.47527374 23.34809912 34.39425927 19 38 C18.34 38.99 17.68 39.98 17 41 C14.6171875 41.29296875 14.6171875 41.29296875 11.875 41.1875 C10.50988281 41.14689453 10.50988281 41.14689453 9.1171875 41.10546875 C8.41851562 41.07066406 7.71984375 41.03585938 7 41 C7.14107747 39.54119891 7.28802415 38.08296449 7.4375 36.625 C7.51871094 35.81289062 7.59992187 35.00078125 7.68359375 34.1640625 C8 32 8 32 9 30 C9.77544029 20.65658017 9.58038212 10.94281873 3.62109375 3.2109375 C2.16707079 1.67342141 2.16707079 1.67342141 0 0 Z " fill="#D7D7D7" transform="translate(44,87)"/>
<path d="M0 0 C4.8811707 3.32807093 7.90461545 7.29801926 9.75 12.875 C10.62002765 20.2095354 10.3493112 26.87182928 5.75 32.875 C0.67990362 38.14098646 -3.09497187 40.02390054 -10.5 40.1875 C-16.44299067 40.12139332 -19.66163172 39.68236942 -24.25 35.875 C-28.54011027 30.34301571 -29.48833491 24.82484596 -29.25 17.875 C-28.22557516 11.48367689 -26.46392204 6.97165303 -21.25 2.875 C-14.74541245 -1.56715735 -7.48974289 -2.59260331 0 0 Z M-15.92578125 6.23046875 C-19.78421844 11.02221524 -20.76212748 16.6007293 -20.54296875 22.6328125 C-19.87075279 27.77750528 -18.25838497 32.41598759 -14.25 35.875 C-11.02732728 37.09438968 -9.50356852 36.95262302 -6.1875 35.9375 C-2.19654653 33.13534118 -0.53962895 30.56720928 0.75 25.875 C1.62627359 17.80146804 1.27055554 11.73671955 -3.5625 5.0625 C-8.2043974 1.79597961 -11.86561116 2.36211772 -15.92578125 6.23046875 Z " fill="#4B79B9" transform="translate(335.25,76.125)"/>
<path d="M0 0 C4.45821927 3.56657542 6.84730098 6.05415417 8.1875 11.75 C8.1875 14.06 8.1875 16.37 8.1875 18.75 C-0.7225 18.75 -9.6325 18.75 -18.8125 18.75 C-16.76380835 27.94201075 -16.76380835 27.94201075 -13.6875 31.3125 C-7.26888409 34.52180795 -0.71174485 33.87896734 6.1875 32.75 C6.1875 34.07 6.1875 35.39 6.1875 36.75 C-1.84826076 40.5218877 -8.26027932 41.43968146 -16.8125 38.75 C-21.89896502 36.60238144 -23.45366525 33.55191359 -25.8125 28.75 C-28.2261301 22.51478891 -26.97343831 15.84667557 -24.71484375 9.7890625 C-22.39258086 4.54135155 -19.137952 1.82031006 -14.03125 -0.5234375 C-9.16470095 -2.11706096 -4.67467592 -2.07763374 0 0 Z M-14.625 6.375 C-16.92646007 9.30954779 -17.00578387 10.71641937 -17.8125 14.75 C-11.8725 14.75 -5.9325 14.75 0.1875 14.75 C-0.89620606 9.33146971 -1.62841749 8.09726601 -5.8125 4.75 C-10.1953988 3.01510256 -11.12666456 3.10988693 -14.625 6.375 Z " fill="#1F58AA" transform="translate(209.8125,76.25)"/>
<path d="M0 0 C0.33 0.99 0.66 1.98 1 3 C8.01170525 6.16214158 15.60103267 7.95281382 23 10 C23 10.33 23 10.66 23 11 C16.64780958 10.45118943 10.32126362 9.83488387 4 9 C3.77390663 11.12364481 3.77390663 11.12364481 5.5 12.625 C5.995 13.07875 6.49 13.5325 7 14 C6.1853125 14.66773437 5.370625 15.33546875 4.53125 16.0234375 C1.33096943 19.78673039 1.46159828 21.7575814 1.5 26.625 C1.53125 30.6015625 1.53125 30.6015625 1 34 C-1.44921875 35.8046875 -1.44921875 35.8046875 -4 37 C-5.54335239 39.93971885 -6 41.66843858 -6 45 C-6.99 45 -7.98 45 -9 45 C-8.67 45.66 -8.34 46.32 -8 47 C-1.83153336 48.86923231 4.77345353 48.24530929 11 47 C11 48.98 11 50.96 11 53 C7.79224458 53.19840395 4.58379499 53.38175425 1.375 53.5625 C0.01955078 53.64661133 0.01955078 53.64661133 -1.36328125 53.73242188 C-6.08056217 53.99066718 -10.34931647 54.04292737 -15 53 C-15.56303171 37.59482694 -15.60290093 22.94304038 -6 10 C-4.29182737 7.25472256 -3.0229031 5.0687093 -2 2 C-1.34 2 -0.68 2 0 2 C0 1.34 0 0.68 0 0 Z " fill="#636267" transform="translate(39,77)"/>
<path d="M0 0 C0.70125 0.721875 1.4025 1.44375 2.125 2.1875 C4.03682969 4.12640943 5.86090308 5.65006967 8.0625 7.3125 C14.63977807 13.33000972 16.69385225 21.69335634 17.1171875 30.4140625 C17.12376834 32.27643974 17.0689301 34.13888718 17 36 C16.01 36 15.02 36 14 36 C14.020625 37.134375 14.04125 38.26875 14.0625 39.4375 C14 43 14 43 13 44 C11.07332493 44.08748207 9.14348139 44.10697334 7.21484375 44.09765625 C6.04501953 44.09443359 4.87519531 44.09121094 3.66992188 44.08789062 C2.43822266 44.07951172 1.20652344 44.07113281 -0.0625 44.0625 C-1.91584961 44.05573242 -1.91584961 44.05573242 -3.80664062 44.04882812 C-6.87114117 44.03699608 -9.93554721 44.02051173 -13 44 C-13 42.02 -13 40.04 -13 38 C-13.56589844 38.15855469 -14.13179687 38.31710938 -14.71484375 38.48046875 C-18.4843789 39.33747418 -22.16492967 39.51472589 -26 39 C-28.125 37.375 -28.125 37.375 -29 35 C-28.77962372 31.32706204 -28.63033454 29.63033454 -26 27 C-25.01 27.33 -24.02 27.66 -23 28 C-23.99 28.66 -24.98 29.32 -26 30 C-26.2502157 33.08365871 -26.2502157 33.08365871 -26 36 C-22.41672247 37.00217064 -22.41672247 37.00217064 -19 36 C-19 33.69 -19 31.38 -19 29 C-19.99 28.67 -20.98 28.34 -22 28 C-22.13548815 25.26916098 -22.23429855 22.54508193 -22.3125 19.8125 C-22.35439453 19.04357422 -22.39628906 18.27464844 -22.43945312 17.48242188 C-22.53491887 13.03371827 -22.43312555 11.52445124 -19.48046875 7.94921875 C-18.66191406 7.30597656 -17.84335937 6.66273437 -17 6 C-14.6875 6.4375 -14.6875 6.4375 -12 8 C-7.91747937 14.71383275 -8.29789898 23.45013448 -9 31 C-9.98046875 33.71484375 -9.98046875 33.71484375 -11 36 C-11.37593066 37.9924325 -11.71979545 39.9918674 -12 42 C-8.7 42 -5.4 42 -2 42 C-1.34 40.68 -0.68 39.36 0 38 C4.41080176 34.12710089 7.6095825 33.59912262 13.2421875 33.859375 C13.82226562 33.90578125 14.40234375 33.9521875 15 34 C13.23560087 19.44817789 13.23560087 19.44817789 4.67578125 8.1953125 C2.49129067 6.70697826 0.29064667 5.31749612 -2 4 C-1.34 3.67 -0.68 3.34 0 3 C0 2.01 0 1.02 0 0 Z " fill="#676669" transform="translate(63,86)"/>
<path d="M0 0 C2.75191559 0.70308422 4.25903171 2.23694006 5.8671875 4.52734375 C8.66795587 9.59683489 10.59924611 14.97619321 12.08203125 20.5625 C12.37078125 21.531875 12.65953125 22.50125 12.95703125 23.5 C13.61703125 23.83 14.27703125 24.16 14.95703125 24.5 C13.63703125 24.5 12.31703125 24.5 10.95703125 24.5 C11.28703125 28.46 11.61703125 32.42 11.95703125 36.5 C-0.18742668 37.56116623 -0.18742668 37.56116623 -4.4609375 35.1171875 C-7.60711204 32.01797079 -9.86598884 28.81559301 -11.04296875 24.5 C-9.80546875 23.2625 -9.80546875 23.2625 -8.54296875 22 C-5.93300263 18.84722041 -5.3600251 16.52034503 -5.6015625 12.46875 C-6.33725975 9.18741006 -7.9560339 7.10866856 -10.04296875 4.5 C-7.21080335 0.72377946 -4.76698094 -0.28301186 0 0 Z " fill="#D4D4D5" transform="translate(58.04296875,29.5)"/>
<path d="M0 0 C1.09570312 0.00902344 2.19140625 0.01804688 3.3203125 0.02734375 C4.16335937 0.03894531 5.00640625 0.05054688 5.875 0.0625 C6.875 3.0625 6.875 3.0625 5.875 7.0625 C0.43 6.5675 0.43 6.5675 -5.125 6.0625 C-7.53009088 12.95421241 -7.53009088 12.95421241 -9.125 20.0625 C-5.825 20.0625 -2.525 20.0625 0.875 20.0625 C0.875 21.3825 0.875 22.7025 0.875 24.0625 C-2.425 24.0625 -5.725 24.0625 -9.125 24.0625 C-9.125 35.6125 -9.125 47.1625 -9.125 59.0625 C-11.765 59.0625 -14.405 59.0625 -17.125 59.0625 C-17.125 47.5125 -17.125 35.9625 -17.125 24.0625 C-19.435 23.7325 -21.745 23.4025 -24.125 23.0625 C-24.125 22.0725 -24.125 21.0825 -24.125 20.0625 C-21.815 20.0625 -19.505 20.0625 -17.125 20.0625 C-16.9703125 18.268125 -16.9703125 18.268125 -16.8125 16.4375 C-15.94873998 9.72856944 -13.1376637 5.56104434 -8.125 1.0625 C-5.36047967 -0.31976016 -3.0788637 -0.03275387 0 0 Z " fill="#6289CA" transform="translate(247.125,55.9375)"/>
<path d="M0 0 C0.66 0 1.32 0 2 0 C2.556875 1.03125 3.11375 2.0625 3.6875 3.125 C5.77145129 6.7924555 8.22036927 9.83430945 11 13 C9.8553125 12.6596875 9.8553125 12.6596875 8.6875 12.3125 C6.06319914 11.73235245 6.06319914 11.73235245 4.3125 13 C2.46231826 15.81932455 1.79788984 18.7470645 1 22 C3.31 22.33 5.62 22.66 8 23 C8.66 21.02 9.32 19.04 10 17 C10.99 17.33 11.98 17.66 13 18 C12.85769192 19.41702513 12.71099254 20.8336096 12.5625 22.25 C12.48128906 23.03890625 12.40007813 23.8278125 12.31640625 24.640625 C12.02365007 26.82364639 11.57935581 28.8773182 11 31 C11.99 31 12.98 31 14 31 C14 27.04 14 23.08 14 19 C14.33 19 14.66 19 15 19 C15.495 25.435 15.495 25.435 16 32 C16.66 32 17.32 32 18 32 C18 33.32 18 34.64 18 36 C14.22628488 37.3357457 11.14168653 36.72408671 7.25 36.0625 C6.07953125 35.86785156 4.9090625 35.67320313 3.703125 35.47265625 C2.36507812 35.23869141 2.36507812 35.23869141 1 35 C2.32 36.32 3.64 37.64 5 39 C4.67 39.66 4.34 40.32 4 41 C2.68 41 1.36 41 0 41 C-1.86430083 41.94417382 -1.86430083 41.94417382 -3 44 C-3.37644848 46.62939205 -3.60133087 49.05072472 -3.6875 51.6875 C-3.72166016 52.38939453 -3.75582031 53.09128906 -3.79101562 53.81445312 C-3.87329947 55.54241387 -3.9383324 57.27118072 -4 59 C-3.01 59.33 -2.02 59.66 -1 60 C-1.99 60.495 -1.99 60.495 -3 61 C-2.2575 61.5878125 -2.2575 61.5878125 -1.5 62.1875 C0 64 0 64 0.375 66.5625 C0.25125 67.366875 0.1275 68.17125 0 69 C-3 71 -3 71 -5.625 70.6875 C-8 70 -8 70 -9 69 C-9.25 66.0625 -9.25 66.0625 -9 63 C-8.01 62.34 -7.02 61.68 -6 61 C-7.485 61.495 -7.485 61.495 -9 62 C-9.68493373 64.85778033 -9.68493373 64.85778033 -10 68 C-9.34 68.99 -8.68 69.98 -8 71 C-4.43230448 71.73606499 -4.43230448 71.73606499 -1 72 C-1 72.33 -1 72.66 -1 73 C-5.92127034 73.16682272 -9.50343896 73.24828052 -14 71 C-14 72.65 -14 74.3 -14 76 C-14.33 76 -14.66 76 -15 76 C-15 73.69 -15 71.38 -15 69 C-14.01 69 -13.02 69 -12 69 C-12 68.01 -12 67.02 -12 66 C-13.65 66 -15.3 66 -17 66 C-17 65.67 -17 65.34 -17 65 C-15.35 65 -13.7 65 -12 65 C-11.62875 63.824375 -11.62875 63.824375 -11.25 62.625 C-10.8375 61.75875 -10.425 60.8925 -10 60 C-9.32324219 59.76539063 -8.64648438 59.53078125 -7.94921875 59.2890625 C-6.98435547 58.65097656 -6.98435547 58.65097656 -6 58 C-5.47954058 54.62513651 -5.47954058 54.62513651 -5.5625 50.75 C-5.36662686 42.44163239 -5.36662686 42.44163239 -2.4375 39.0625 C-1.2309375 38.0415625 -1.2309375 38.0415625 0 37 C-1.98 36.34 -3.96 35.68 -6 35 C-5.34 34.01 -4.68 33.02 -4 32 C-2.52076554 32.14514409 -1.04161704 32.29116422 0.4375 32.4375 C1.26121094 32.51871094 2.08492187 32.59992188 2.93359375 32.68359375 C6.9583883 33.09889102 10.97909301 33.54880364 15 34 C13.73542969 33.66226563 12.47085938 33.32453125 11.16796875 32.9765625 C9.50773443 32.52632946 7.84758243 32.07579279 6.1875 31.625 C5.35412109 31.40328125 4.52074219 31.1815625 3.66210938 30.953125 C2.85966797 30.73398438 2.05722656 30.51484375 1.23046875 30.2890625 C0.49207764 30.09006348 -0.24631348 29.89106445 -1.00708008 29.68603516 C-3 29 -3 29 -6 27 C-6.29296875 23.9609375 -6.29296875 23.9609375 -6.1875 20.375 C-6.16042969 19.18648437 -6.13335937 17.99796875 -6.10546875 16.7734375 C-6.07066406 15.85820313 -6.03585938 14.94296875 -6 14 C-6.66 13.67 -7.32 13.34 -8 13 C-3.71 12.01 0.58 11.02 5 10 C3.35820641 6.87544942 3.35820641 6.87544942 0.8359375 6.26953125 C0.02382813 6.11871094 -0.78828125 5.96789063 -1.625 5.8125 C-2.85089844 5.57466797 -2.85089844 5.57466797 -4.1015625 5.33203125 C-4.72804688 5.22246094 -5.35453125 5.11289062 -6 5 C-6 3.68 -6 2.36 -6 1 C-3.03 1.495 -3.03 1.495 0 2 C0 1.34 0 0.68 0 0 Z " fill="#47474A" transform="translate(45,53)"/>
<path d="M0 0 C5.61 0 11.22 0 17 0 C17 0.33 17 0.66 17 1 C14.03 1 11.06 1 8 1 C7.67 8.92 7.34 16.84 7 25 C11.62 25 16.24 25 21 25 C20.67 25.99 20.34 26.98 20 28 C16.04 28 12.08 28 8 28 C8 36.25 8 44.5 8 53 C12.29 53 16.58 53 21 53 C21 53.66 21 54.32 21 55 C14.73191505 58.13404247 7.00793201 56 0 56 C0 37.52 0 19.04 0 0 Z " fill="#0C4FAD" transform="translate(258,59)"/>
<path d="M0 0 C0 2.64 0 5.28 0 8 C3.3 8 6.6 8 10 8 C10 9.32 10 10.64 10 12 C6.7 12 3.4 12 0 12 C0 22.23 0 32.46 0 43 C3.3 43 6.6 43 10 43 C9.67 44.32 9.34 45.64 9 47 C4.66746238 48.44417921 0.52769694 48.53441669 -4 48 C-6.85443729 46.12024861 -7.73491333 45.02564481 -8.58374023 41.74145508 C-9.0415886 38.72610066 -9.11268007 35.87405473 -9.09765625 32.82421875 C-9.09443359 31.66728516 -9.09121094 30.51035156 -9.08789062 29.31835938 C-9.07951172 28.12017578 -9.07113281 26.92199219 -9.0625 25.6875 C-9.05798828 24.46998047 -9.05347656 23.25246094 -9.04882812 21.99804688 C-9.03706578 18.99864774 -9.02062826 15.99934911 -9 13 C-10.98 12.34 -12.96 11.68 -15 11 C-15 10.01 -15 9.02 -15 8 C-13.02 8 -11.04 8 -9 8 C-8.95875 7.4225 -8.9175 6.845 -8.875 6.25 C-7.47914178 2.6606503 -3.92186453 0 0 0 Z " fill="#2A63B4" transform="translate(363,68)"/>
<path d="M0 0 C0.66 0.33 1.32 0.66 2 1 C2 2.98 2 4.96 2 7 C1.38511719 7.26554687 0.77023438 7.53109375 0.13671875 7.8046875 C-0.67152344 8.15789062 -1.47976562 8.51109375 -2.3125 8.875 C-3.11300781 9.22304687 -3.91351563 9.57109375 -4.73828125 9.9296875 C-7.1961834 11.02571894 -7.1961834 11.02571894 -10 13 C-10.51146198 15.90613434 -10.51146198 15.90613434 -10.51171875 19.3203125 C-10.54716797 20.57714844 -10.58261719 21.83398438 -10.61914062 23.12890625 C-10.65297852 25.10697266 -10.65297852 25.10697266 -10.6875 27.125 C-10.72066529 28.46487759 -10.75515422 29.80472311 -10.79101562 31.14453125 C-10.87373327 34.4296033 -10.94280693 37.71440032 -11 41 C-13.97 41 -16.94 41 -20 41 C-20 28.13 -20 15.26 -20 2 C-18.02 2 -16.04 2 -14 2 C-12.125 4 -12.125 4 -11 6 C-10.45730469 5.65066406 -9.91460937 5.30132812 -9.35546875 4.94140625 C-8.28232422 4.25884766 -8.28232422 4.25884766 -7.1875 3.5625 C-6.47980469 3.11003906 -5.77210938 2.65757813 -5.04296875 2.19140625 C-3 1 -3 1 0 0 Z " fill="#4E77B0" transform="translate(159,74)"/>
<path d="M0 0 C1.58206057 0.00667536 3.16410534 0.0186375 4.74609375 0.03515625 C5.55240234 0.03966797 6.35871094 0.04417969 7.18945312 0.04882812 C9.18753131 0.06065107 11.18557158 0.07858711 13.18359375 0.09765625 C13.18359375 0.75765625 13.18359375 1.41765625 13.18359375 2.09765625 C9.55359375 2.75765625 5.92359375 3.41765625 2.18359375 4.09765625 C2.18359375 11.02765625 2.18359375 17.95765625 2.18359375 25.09765625 C5.15359375 25.09765625 8.12359375 25.09765625 11.18359375 25.09765625 C11.51359375 25.75765625 11.84359375 26.41765625 12.18359375 27.09765625 C8.55359375 27.09765625 4.92359375 27.09765625 1.18359375 27.09765625 C1.51359375 35.34765625 1.84359375 43.59765625 2.18359375 52.09765625 C5.81359375 52.09765625 9.44359375 52.09765625 13.18359375 52.09765625 C12.85359375 52.75765625 12.52359375 53.41765625 12.18359375 54.09765625 C6.90359375 54.09765625 1.62359375 54.09765625 -3.81640625 54.09765625 C-5.05464553 51.6211777 -4.94334846 49.97451884 -4.94580078 47.20483398 C-4.94895294 46.18715439 -4.9521051 45.16947479 -4.95535278 44.12095642 C-4.95332855 43.0188533 -4.95130432 41.91675018 -4.94921875 40.78125 C-4.95017548 39.65445328 -4.9511322 38.52765656 -4.95211792 37.36671448 C-4.95279928 34.98186182 -4.95094806 32.59700731 -4.94677734 30.2121582 C-4.94142354 26.54699573 -4.94672642 22.88195554 -4.953125 19.21679688 C-4.95246431 16.90494764 -4.95118333 14.59309849 -4.94921875 12.28125 C-4.95124298 11.17712265 -4.95326721 10.0729953 -4.95535278 8.93540955 C-4.95220062 7.92088211 -4.94904846 6.90635468 -4.94580078 5.86108398 C-4.94500519 4.96332748 -4.94420959 4.06557098 -4.94338989 3.14060974 C-4.7144853 -0.54208067 -3.87206549 0.09908049 0 0 Z " fill="#0A4DAA" transform="translate(93.81640625,59.90234375)"/>
<path d="M0 0 C0.80824219 0.10183594 1.61648437 0.20367188 2.44921875 0.30859375 C3.06410156 0.39238281 3.67898437 0.47617187 4.3125 0.5625 C2.3125 3.5625 2.3125 3.5625 0.1484375 4.07421875 C-0.66367187 4.13222656 -1.47578125 4.19023438 -2.3125 4.25 C-3.53839844 4.34861328 -3.53839844 4.34861328 -4.7890625 4.44921875 C-5.41554688 4.48660156 -6.04203125 4.52398437 -6.6875 4.5625 C-6.81382813 5.17609375 -6.94015625 5.7896875 -7.0703125 6.421875 C-7.91245551 9.34272546 -9.3670119 10.6515098 -11.6875 12.5625 C-12.6775 12.5625 -13.6675 12.5625 -14.6875 12.5625 C-14.54581863 14.00041516 -14.39898957 15.4378237 -14.25 16.875 C-14.16878906 17.67550781 -14.08757813 18.47601563 -14.00390625 19.30078125 C-13.73484307 21.72337179 -13.73484307 21.72337179 -12.6875 24.5625 C-10.7075 24.5625 -8.7275 24.5625 -6.6875 24.5625 C-6.6875 25.8825 -6.6875 27.2025 -6.6875 28.5625 C-6.07261719 28.58828125 -5.45773438 28.6140625 -4.82421875 28.640625 C1.85966981 29.10966981 1.85966981 29.10966981 4.375 31.625 C4.8390625 32.5840625 4.8390625 32.5840625 5.3125 33.5625 C0.24493808 36.94087462 -5.66032819 37.5625 -11.6875 37.5625 C-15.36111239 35.68910404 -16.30741438 32.37696918 -18 28.75 C-19.56432142 21.49723704 -19.34211559 14.174469 -15.6875 7.5625 C-11.07197747 2.42773118 -7.11296148 -0.92777758 0 0 Z " fill="#7D7C80" transform="translate(45.6875,29.4375)"/>
<path d="M0 0 C2.64 0 5.28 0 8 0 C8 12.87 8 25.74 8 39 C5.36 39 2.72 39 0 39 C0 26.13 0 13.26 0 0 Z " fill="#275FAF" transform="translate(168,76)"/>
<path d="M0 0 C0 0.99 0 1.98 0 3 C-0.65097656 3.56589844 -1.30195312 4.13179688 -1.97265625 4.71484375 C-5.13752446 8.28218075 -4.48421144 11.99828791 -4.40039062 16.59960938 C-4.43359375 18.56640625 -4.43359375 18.56640625 -5 22 C-7.41015625 23.77734375 -7.41015625 23.77734375 -10 25 C-10.66 25.99 -11.32 26.98 -12 28 C-14.625 28.1875 -14.625 28.1875 -17 28 C-17.40401647 18.45324043 -17.39053183 9.98607622 -11.875 1.875 C-7.89427413 -0.72112557 -4.62119982 -0.45305881 0 0 Z " fill="#D2D2D4" transform="translate(45,89)"/>
<path d="M0 0 C1.875 0.625 1.875 0.625 4 2 C6.22141651 6.99818715 6.24287629 11.52522997 6.125 16.875 C6.11597656 17.65875 6.10695313 18.4425 6.09765625 19.25 C6.07428063 21.16680055 6.03841653 23.08344191 6 25 C4.35 25 2.7 25 1 25 C0.87625 25.94875 0.7525 26.8975 0.625 27.875 C0 31 0 31 -2 33 C-5.4375 33.375 -5.4375 33.375 -9 33 C-11 31.375 -11 31.375 -12 29 C-11.77962372 25.32706204 -11.63033454 23.63033454 -9 21 C-8.01 21.33 -7.02 21.66 -6 22 C-6.99 22.66 -7.98 23.32 -9 24 C-9.2502157 27.08365871 -9.2502157 27.08365871 -9 30 C-5.41672247 31.00217064 -5.41672247 31.00217064 -2 30 C-2 27.69 -2 25.38 -2 23 C-2.99 22.67 -3.98 22.34 -5 22 C-5.13548815 19.26916098 -5.23429855 16.54508193 -5.3125 13.8125 C-5.35439453 13.04357422 -5.39628906 12.27464844 -5.43945312 11.48242188 C-5.53491887 7.03371827 -5.43312555 5.52445124 -2.48046875 1.94921875 C-1.66191406 1.30597656 -0.84335937 0.66273437 0 0 Z " fill="#D6D6D7" transform="translate(46,92)"/>
<path d="M0 0 C1.38251953 0.15275391 1.38251953 0.15275391 2.79296875 0.30859375 C3.45941406 0.39238281 4.12585938 0.47617187 4.8125 0.5625 C4.8125 1.5525 4.8125 2.5425 4.8125 3.5625 C3.8225 4.0575 3.8225 4.0575 2.8125 4.5625 C2.8125 3.9025 2.8125 3.2425 2.8125 2.5625 C-5.6025 3.0575 -5.6025 3.0575 -14.1875 3.5625 C-14.1875 21.0525 -14.1875 38.5425 -14.1875 56.5625 C-6.2675 56.0675 -6.2675 56.0675 1.8125 55.5625 C-1.8175 55.5625 -5.4475 55.5625 -9.1875 55.5625 C-9.1875 46.9825 -9.1875 38.4025 -9.1875 29.5625 C-8.8575 29.5625 -8.5275 29.5625 -8.1875 29.5625 C-8.1875 37.4825 -8.1875 45.4025 -8.1875 53.5625 C-4.84625 53.3459375 -4.84625 53.3459375 -1.4375 53.125 C-0.18453125 53.04378906 1.0684375 52.96257812 2.359375 52.87890625 C5.65165005 52.66964854 5.65165005 52.66964854 8.140625 51.96484375 C9.8125 51.5625 9.8125 51.5625 11.8125 52.5625 C13.47444453 52.91863097 15.140951 53.25458308 16.8125 53.5625 C7.1514166 61.49838993 -4.41492463 57.5625 -17.1875 57.5625 C-17.1875 38.7525 -17.1875 19.9425 -17.1875 0.5625 C-4.8125 -0.5625 -4.8125 -0.5625 0 0 Z " fill="#456DAC" transform="translate(104.1875,57.4375)"/>
<path d="M0 0 C27.54545455 0 27.54545455 0 35.0625 5.0625 C37.3063312 7.3063312 37.9678715 8.21606466 38.09765625 11.3828125 C38.08605469 12.28773437 38.07445312 13.19265625 38.0625 14.125 C38.05347656 15.03507812 38.04445313 15.94515625 38.03515625 16.8828125 C38.02355469 17.58148438 38.01195312 18.28015625 38 19 C37.67 19 37.34 19 37 19 C36.505 14.545 36.505 14.545 36 10 C32.9254644 10.7763932 32.9254644 10.7763932 31 13 C30.01 13 29.02 13 28 13 C27.319375 11.8553125 27.319375 11.8553125 26.625 10.6875 C24.6295622 7.38735286 23.62804424 6.36051659 20 5 C16.25711113 5.05807021 12.72456051 5.50638355 9 6 C9 12.6 9 19.2 9 26 C8.67 26 8.34 26 8 26 C7.97098606 22.5625177 7.95319665 19.12506688 7.9375 15.6875 C7.92912109 14.71103516 7.92074219 13.73457031 7.91210938 12.72851562 C7.90888672 11.79072266 7.90566406 10.85292969 7.90234375 9.88671875 C7.89710693 9.02264404 7.89187012 8.15856934 7.88647461 7.26831055 C8 5 8 5 9 2 C6.36 1.67 3.72 1.34 1 1 C1 19.48 1 37.96 1 57 C0.67 57 0.34 57 0 57 C0 38.19 0 19.38 0 0 Z " fill="#5E86C3" transform="translate(257,58)"/>
<path d="M0 0 C0.33 0.99 0.66 1.98 1 3 C4.3 3 7.6 3 11 3 C11 3.66 11 4.32 11 5 C7.7 5 4.4 5 1 5 C1 16.88 1 28.76 1 41 C-0.98 41 -2.96 41 -5 41 C-5.02475469 36.37353911 -5.04288594 31.74711694 -5.05493164 27.12060547 C-5.05995437 25.54735645 -5.06677375 23.97411208 -5.07543945 22.40087891 C-5.08759529 20.13703257 -5.09324896 17.87324807 -5.09765625 15.609375 C-5.10281754 14.90818542 -5.10797882 14.20699585 -5.11329651 13.48455811 C-5.11367502 10.17514249 -5.02514727 7.16412237 -4 4 C-3.01 4 -2.02 4 -1 4 C-0.67 2.68 -0.34 1.36 0 0 Z " fill="#0749A3" transform="translate(236,74)"/>
<path d="M0 0 C2 3 2 3 2 10 C-6.91 10 -15.82 10 -25 10 C-22.95130835 19.19201075 -22.95130835 19.19201075 -19.875 22.5625 C-13.45638409 25.77180795 -6.89924485 25.12896734 0 24 C0 25.32 0 26.64 0 28 C-8.02175617 31.76531412 -14.46162878 32.71237732 -23 30 C-27.15726801 28.10211678 -28.99932964 26.10663915 -31 22 C-31 21.34 -31 20.68 -31 20 C-30.01 20.33 -29.02 20.66 -28 21 C-28 21.66 -28 22.32 -28 23 C-27.34 22.67 -26.68 22.34 -26 22 C-25.34786708 19.97536745 -25.34786708 19.97536745 -25 18 C-25.66 18 -26.32 18 -27 18 C-27 15.03 -27 12.06 -27 9 C-17.76 9 -8.52 9 1 9 C0.67 6.03 0.34 3.06 0 0 Z " fill="#6289C3" transform="translate(216,85)"/>
<path d="M0 0 C3.37881434 1.39813007 5.15017878 2.82887791 7 6 C8.47031899 10.62100253 7.84771349 13.83497945 6.00390625 18.17578125 C3.39462061 22.91716799 -1.11639837 24.75967021 -5.99609375 26.47265625 C-8.70591993 27.1857684 -11.21790274 27.20865729 -14 27 C-13.34 26.67 -12.68 26.34 -12 26 C-12 25.34 -12 24.68 -12 24 C-16.29 24 -20.58 24 -25 24 C-25 23.67 -25 23.34 -25 23 C-24.05898438 22.97421875 -23.11796875 22.9484375 -22.1484375 22.921875 C-14.42065478 22.8197237 -14.42065478 22.8197237 -7.1875 20.5 C-4.08410364 16.9532613 -3.81269321 13.62566336 -4 9 C-4.29205209 7.6570203 -4.61333558 6.31885538 -5 5 C-2.00667261 5.9977758 -1.05233685 6.7522025 1 9 C1.07427838 5.65747276 1.06546953 3.1964086 0 0 Z " fill="#265FB1" transform="translate(291,88)"/>
<path d="M0 0 C4.40284283 2.43155028 6.65286007 4.86215245 8.125 9.6875 C8 13 8 13 6.5625 14.9375 C6.046875 15.288125 5.53125 15.63875 5 16 C5.99 15.67 6.98 15.34 8 15 C8 17.97 8 20.94 8 24 C6.68 24 5.36 24 4 24 C4.66 24.66 5.32 25.32 6 26 C6 27.32 6 28.64 6 30 C5.01 30.33 4.02 30.66 3 31 C2.26676204 33.01508358 2.26676204 33.01508358 2 35 C0.68 35 -0.64 35 -2 35 C-2 34.34 -2 33.68 -2 33 C-1.34 33 -0.68 33 0 33 C0.08774066 29.79184155 0.14063706 26.58399538 0.1875 23.375 C0.21263672 22.47136719 0.23777344 21.56773438 0.26367188 20.63671875 C0.3217483 15.33240501 0.06045683 11.55089207 -3 7 C-4.63495707 5.94895617 -6.29883624 4.94011682 -8 4 C-8.33 3.01 -8.66 2.02 -9 1 C-5.79745853 -0.60127074 -3.54685436 -0.40701607 0 0 Z " fill="#326ABC" transform="translate(335,76)"/>
<path d="M0 0 C0 3.3 0 6.6 0 10 C6.6 10 13.2 10 20 10 C19.67 8.02 19.34 6.04 19 4 C19.99 4.33 20.98 4.66 22 5 C22 6.32 22 7.64 22 9 C22.66 7.02 23.32 5.04 24 3 C26.05164237 6.46214649 26 7.59389235 26 12 C16.76 12 7.52 12 -2 12 C-2 14.97 -2 17.94 -2 21 C-1.34 21 -0.68 21 0 21 C-0.33 22.65 -0.66 24.3 -1 26 C-1.66 26 -2.32 26 -3 26 C-3.33 25.34 -3.66 24.68 -4 24 C-4.99 23.67 -5.98 23.34 -7 23 C-9.69267462 16.88028496 -7.93209551 9.90488266 -5.94921875 3.8828125 C-4.60275429 1.21204761 -3.03768079 0 0 0 Z " fill="#1B5AB2" transform="translate(191,82)"/>
<path d="M0 0 C2.72471561 0.69069637 4.25115229 2.16727251 5.859375 4.4296875 C8.06751852 8.58665519 9.53181778 13.02140119 10.95703125 17.49609375 C9.96703125 17.49609375 8.97703125 17.49609375 7.95703125 17.49609375 C7.62703125 15.84609375 7.29703125 14.19609375 6.95703125 12.49609375 C3.74002597 12.84387811 2.36552977 12.99681779 0.26953125 15.55859375 C-0.38015625 16.51765625 -0.38015625 16.51765625 -1.04296875 17.49609375 C-1.70296875 17.49609375 -2.36296875 17.49609375 -3.04296875 17.49609375 C-3.37296875 18.48609375 -3.70296875 19.47609375 -4.04296875 20.49609375 C-4.70296875 19.83609375 -5.36296875 19.17609375 -6.04296875 18.49609375 C-6.00171875 17.25859375 -5.96046875 16.02109375 -5.91796875 14.74609375 C-5.76676598 10.14280933 -7.20910507 8.03842335 -10.04296875 4.49609375 C-7.21177706 0.7211715 -4.76675222 -0.29184197 0 0 Z M3.95703125 17.49609375 C7.95703125 18.49609375 7.95703125 18.49609375 7.95703125 18.49609375 Z " fill="#D5D4D6" transform="translate(58.04296875,29.50390625)"/>
<path d="M0 0 C0.99 0 1.98 0 3 0 C3.33 1.32 3.66 2.64 4 4 C5.65 4.33 7.3 4.66 9 5 C10.47367091 10.35880331 9.57462527 14.2083363 7 19 C5.71484375 20.7265625 5.71484375 20.7265625 4 22 C1.51953125 22.29296875 1.51953125 22.29296875 -1.1875 22.1875 C-2.53908203 22.14689453 -2.53908203 22.14689453 -3.91796875 22.10546875 C-4.60503906 22.07066406 -5.29210937 22.03585938 -6 22 C-5.360625 20.865625 -4.72125 19.73125 -4.0625 18.5625 C-1.85078578 14.16260043 -0.94889349 9.92666762 -1 5 C-1.33 4.34 -1.66 3.68 -2 3 C-1.34 2.67 -0.68 2.34 0 2 C0 1.34 0 0.68 0 0 Z " fill="#0649A6" transform="translate(119,89)"/>
<path d="M0 0 C1.32 0.33 2.64 0.66 4 1 C4.103125 1.639375 4.20625 2.27875 4.3125 2.9375 C4.539375 3.618125 4.76625 4.29875 5 5 C5.99 5.33 6.98 5.66 8 6 C7.67 16.23 7.34 26.46 7 37 C6.67 37 6.34 37 6 37 C5.67 27.76 5.34 18.52 5 9 C4.67 17.58 4.34 26.16 4 35 C2.68 35 1.36 35 0 35 C0 23.45 0 11.9 0 0 Z " fill="#2565BA" transform="translate(141,78)"/>
<path d="M0 0 C0.33 1.32 0.66 2.64 1 4 C1.66 3.67 2.32 3.34 3 3 C3.99 3.33 4.98 3.66 6 4 C6 3.34 6 2.68 6 2 C6.99 2 7.98 2 9 2 C7.61122646 5.35620271 6.08322035 7.07298728 3 9 C2.34 9 1.68 9 1 9 C1 9.66 1 10.32 1 11 C1.70125 11.061875 2.4025 11.12375 3.125 11.1875 C7.0332733 12.29201202 9.00357248 14.28230992 12 17 C11.67 17.66 11.34 18.32 11 19 C9.68 19 8.36 19 7 19 C7 17.35 7 15.7 7 14 C6.01 14 5.02 14 4 14 C4.33 14.99 4.66 15.98 5 17 C4.0625 19.6875 4.0625 19.6875 3 22 C2.195625 20.8553125 2.195625 20.8553125 1.375 19.6875 C-2.35522609 15.46645469 -6.49005253 13.81028639 -12 13 C-11.34 12.34 -10.68 11.68 -10 11 C-12.97 10.67 -15.94 10.34 -19 10 C-19 9.67 -19 9.34 -19 9 C-18.11957031 8.90203125 -17.23914063 8.8040625 -16.33203125 8.703125 C-15.17058594 8.55359375 -14.00914063 8.4040625 -12.8125 8.25 C-11.66394531 8.11078125 -10.51539062 7.9715625 -9.33203125 7.828125 C-5.59365197 6.89900846 -3.72488221 5.69001168 -1 3 C-0.67 2.01 -0.34 1.02 0 0 Z " fill="#537FBF" transform="translate(115,75)"/>
<path d="M0 0 C0.79921875 0.00902344 1.5984375 0.01804687 2.421875 0.02734375 C3.02515625 0.03894531 3.6284375 0.05054687 4.25 0.0625 C3.610625 0.35125 2.97125 0.64 2.3125 0.9375 C0.09793921 1.89073451 0.09793921 1.89073451 -0.75 4.0625 C-2.3896875 4.8359375 -2.3896875 4.8359375 -4.0625 5.625 C-8.77867763 8.23003446 -10.26082727 12.04676988 -11.75 17.0625 C-12.27610725 19.75991431 -12.55005097 22.3132008 -12.75 25.0625 C-13.08 25.0625 -13.41 25.0625 -13.75 25.0625 C-13.7770043 23.60426788 -13.79639787 22.14589325 -13.8125 20.6875 C-13.82410156 19.87539062 -13.83570313 19.06328125 -13.84765625 18.2265625 C-13.75 16.0625 -13.75 16.0625 -12.75 14.0625 C-13.41 14.0625 -14.07 14.0625 -14.75 14.0625 C-15.41 13.4025 -16.07 12.7425 -16.75 12.0625 C-19.09988344 15.58732517 -18.91235278 16.9225042 -18.75 21.0625 C-18.52777778 26.72916667 -18.52777778 26.72916667 -20.75 30.0625 C-21.9451443 22.48845297 -22.0664514 16.11633701 -18.75 9.0625 C-13.65942671 2.76626462 -8.00179733 -0.11767349 0 0 Z " fill="#3B6CB7" transform="translate(327.75,74.9375)"/>
<path d="M0 0 C2 1 2 1 3.125 4.0625 C3.41375 5.031875 3.7025 6.00125 4 7 C5.98 7 7.96 7 10 7 C10 8.32 10 9.64 10 11 C10.61488281 11.02578125 11.22976562 11.0515625 11.86328125 11.078125 C18.54716981 11.54716981 18.54716981 11.54716981 21.0625 14.0625 C21.5265625 15.0215625 21.5265625 15.0215625 22 16 C16.92070815 19.38619457 10.91563878 18.81887124 5 18 C2.1875 15.25 2.1875 15.25 1 12 C0.7525 11.38125 0.505 10.7625 0.25 10.125 C-0.14776714 6.74397931 -0.05671284 3.40277021 0 0 Z " fill="#D4D4D5" transform="translate(29,47)"/>
<path d="M0 0 C5.15554026 5.15554026 4.23589123 12.90114515 4.265625 19.6953125 C4.00608903 22.92424528 3.3150979 25.0736562 2 28 C1.62406934 29.9924325 1.28020455 31.9918674 1 34 C4.3 34 7.6 34 11 34 C11.66 32.68 12.32 31.36 13 30 C15.34744891 27.7334976 16.46254352 27.03664476 19.75 26.8125 C20.86375 26.9053125 20.86375 26.9053125 22 27 C21.4225 27.268125 20.845 27.53625 20.25 27.8125 C16.5421173 29.76943809 14.35687262 30.92938213 13 35 C17.29 35 21.58 35 26 35 C26 35.33 26 35.66 26 36 C17.42 36 8.84 36 0 36 C0 34.02 0 32.04 0 30 C-1.98 30.33 -3.96 30.66 -6 31 C-5.690625 30.0925 -5.38125 29.185 -5.0625 28.25 C-4.2727737 25.83436662 -3.57050703 23.47219715 -3 21 C-3 21.66 -3 22.32 -3 23 C-1.35 23 0.3 23 2 23 C1.85823579 20.29139876 1.71171784 17.58319248 1.5625 14.875 C1.52318359 14.11445312 1.48386719 13.35390625 1.44335938 12.5703125 C1.20490998 8.31490797 0.79769763 4.19629174 0 0 Z " fill="#525155" transform="translate(50,94)"/>
<path d="M0 0 C0.33 0 0.66 0 1 0 C1 5.28 1 10.56 1 16 C1.99 16.33 2.98 16.66 4 17 C3.34 17.33 2.68 17.66 2 18 C2.495 18.391875 2.99 18.78375 3.5 19.1875 C5 21 5 21 5.375 23.5625 C5.25125 24.366875 5.1275 25.17125 5 26 C2 28 2 28 -0.625 27.6875 C-3 27 -3 27 -4 26 C-4.25 23.0625 -4.25 23.0625 -4 20 C-3.01 19.34 -2.02 18.68 -1 18 C-1.99 18.33 -2.98 18.66 -4 19 C-4.68493373 21.85778033 -4.68493373 21.85778033 -5 25 C-4.34 25.99 -3.68 26.98 -3 28 C0.56769552 28.73606499 0.56769552 28.73606499 4 29 C4 29.33 4 29.66 4 30 C-0.92127034 30.16682272 -4.50343896 30.24828052 -9 28 C-9 29.65 -9 31.3 -9 33 C-9.33 33 -9.66 33 -10 33 C-10 30.69 -10 28.38 -10 26 C-9.01 26 -8.02 26 -7 26 C-7 25.01 -7 24.02 -7 23 C-8.65 23 -10.3 23 -12 23 C-12 22.67 -12 22.34 -12 22 C-10.35 22 -8.7 22 -7 22 C-6.7525 21.21625 -6.505 20.4325 -6.25 19.625 C-5.8375 18.75875 -5.425 17.8925 -5 17 C-4.3296875 16.773125 -3.659375 16.54625 -2.96875 16.3125 C-1.99421875 15.6628125 -1.99421875 15.6628125 -1 15 C-0.53290648 12.33517159 -0.30427527 10.04929034 -0.25 7.375 C-0.22035156 6.66859375 -0.19070312 5.9621875 -0.16015625 5.234375 C-0.08944643 3.49019953 -0.04245965 1.74509173 0 0 Z " fill="#403F43" transform="translate(40,96)"/>
<path d="M0 0 C1.0828125 0.4640625 1.0828125 0.4640625 2.1875 0.9375 C4.80792695 1.92743907 7.25549499 2.48799991 10 3 C10.05383848 5.45862401 10.09359038 7.9160755 10.125 10.375 C10.14175781 11.07367188 10.15851562 11.77234375 10.17578125 12.4921875 C10.19344267 14.32897486 10.10303261 16.16601963 10 18 C9.34 18.66 8.68 19.32 8 20 C7.01 20 6.02 20 5 20 C5.09539063 19.31292969 5.19078125 18.62585938 5.2890625 17.91796875 C5.39992188 17.01691406 5.51078125 16.11585937 5.625 15.1875 C5.74101563 14.29417969 5.85703125 13.40085937 5.9765625 12.48046875 C6.23500743 9.74309609 6.23500743 9.74309609 4 7 C3.34 9.31 2.68 11.62 2 14 C1.67 13.34 1.34 12.68 1 12 C-2.02934491 11.34227572 -2.02934491 11.34227572 -5 11 C-4.50769231 4.6 -4.50769231 4.6 -1.9375 1.5625 C-0.9784375 0.7890625 -0.9784375 0.7890625 0 0 Z " fill="#CFCFD1" transform="translate(51,64)"/>
<path d="M0 0 C13.6625556 -0.92802264 13.6625556 -0.92802264 18.0625 2.125 C19.02734375 3.75390625 19.02734375 3.75390625 20 6 C20.49628906 7.10214844 20.99257812 8.20429687 21.50390625 9.33984375 C22.57439217 11.76585053 23.58106337 14.197728 24.5703125 16.66015625 C25.8889304 19.98700122 25.8889304 19.98700122 27.7421875 22.74609375 C28.15726563 23.48988281 28.57234375 24.23367187 29 25 C28.67 25.99 28.34 26.98 28 28 C27.01 28 26.02 28 25 28 C25 31.63 25 35.26 25 39 C22.36 39 19.72 39 17 39 C16.67 40.32 16.34 41.64 16 43 C15.34 43 14.68 43 14 43 C14.33 41.68 14.66 40.36 15 39 C14.34 39 13.68 39 13 39 C12.67 39.99 12.34 40.98 12 42 C11.34 41.67 10.68 41.34 10 41 C10 40.01 10 39.02 10 38 C14.62 38 19.24 38 24 38 C23.67 36.68 23.34 35.36 23 34 C22.87794671 31.32459184 22.95532687 28.68038762 23 26 C23.66 25.67 24.32 25.34 25 25 C24.32972637 23.44778739 23.6592858 21.89564678 22.98828125 20.34375 C22.2363273 18.56045999 21.5089403 16.76678858 20.79296875 14.96875 C20.36628906 13.9065625 19.93960938 12.844375 19.5 11.75 C19.0978125 10.73421875 18.695625 9.7184375 18.28125 8.671875 C16.70771358 5.33342511 16.70771358 5.33342511 14 3 C10.58436814 2.20049537 10.58436814 2.20049537 6.8125 1.8125 C5.54019531 1.65394531 4.26789062 1.49539062 2.95703125 1.33203125 C1.98121094 1.22246094 1.00539062 1.11289062 0 1 C0 0.67 0 0.34 0 0 Z " fill="#6E6E70" transform="translate(46,28)"/>
<path d="M0 0 C5.61 0 11.22 0 17 0 C17 0.33 17 0.66 17 1 C11.72 1 6.44 1 1 1 C1 18.49 1 35.98 1 54 C2.98 54 4.96 54 7 54 C7.33 53.34 7.66 52.68 8 52 C12.29 52.33 16.58 52.66 21 53 C21 53.66 21 54.32 21 55 C14.73191505 58.13404247 7.00793201 56 0 56 C0 37.52 0 19.04 0 0 Z " fill="#104593" transform="translate(258,59)"/>
<path d="M0 0 C1.2065625 0.9590625 1.2065625 0.9590625 2.4375 1.9375 C8.67250818 6.07461131 15.94890246 5.15381596 23 4 C23 5.32 23 6.64 23 8 C15.78176082 11.38815309 9.99744962 12.46891932 2 11 C2.04125 10.113125 2.0825 9.22625 2.125 8.3125 C2.00102754 5.02722987 1.38612096 2.94550705 0 0 Z " fill="#476EAE" transform="translate(193,105)"/>
<path d="M0 0 C0.33 0 0.66 0 1 0 C1.02505615 0.70084717 1.0501123 1.40169434 1.07592773 2.1237793 C1.19226545 5.31185488 1.31482044 8.49966242 1.4375 11.6875 C1.47681641 12.79029297 1.51613281 13.89308594 1.55664062 15.02929688 C1.59853516 16.09599609 1.64042969 17.16269531 1.68359375 18.26171875 C1.72025146 19.24100342 1.75690918 20.22028809 1.79467773 21.22924805 C1.99219333 23.89465177 2.41573033 26.39469788 3 29 C7.73885002 30.12829762 10.47894567 29.70795386 15 28 C15.99 28 16.98 28 18 28 C17.6875 29.9375 17.6875 29.9375 17 32 C12.66746238 33.44417921 8.52769694 33.53441669 4 33 C1.12407239 31.10609646 0.25574801 30.01225535 -0.58154297 26.69824219 C-1.0114038 23.92646746 -1.12941564 21.31948942 -1.1328125 18.515625 C-1.13410156 17.49855469 -1.13539063 16.48148438 -1.13671875 15.43359375 C-1.13285156 14.38300781 -1.12898438 13.33242187 -1.125 12.25 C-1.12886719 11.18394531 -1.13273437 10.11789063 -1.13671875 9.01953125 C-1.13542969 8.00761719 -1.13414062 6.99570313 -1.1328125 5.953125 C-1.13168457 5.02661133 -1.13055664 4.10009766 -1.12939453 3.14550781 C-1 1 -1 1 0 0 Z " fill="#6A89B7" transform="translate(355,83)"/>
<path d="M0 0 C0.66 0.33 1.32 0.66 2 1 C2 1.66 2 2.32 2 3 C2.66 3 3.32 3 4 3 C4.02705308 5.41674224 4.04686438 7.8331794 4.0625 10.25 C4.07087891 10.93191406 4.07925781 11.61382812 4.08789062 12.31640625 C4.10428392 15.69342554 4.05628768 18.77291639 3 22 C2.34 22 1.68 22 1 22 C0.34 21.34 -0.32 20.68 -1 20 C-1.66 19.67 -2.32 19.34 -3 19 C-3.08117951 16.58265458 -3.14056926 14.16805051 -3.1875 11.75 C-3.21263672 11.06808594 -3.23777344 10.38617188 -3.26367188 9.68359375 C-3.31137459 6.40800711 -3.21085076 4.34651444 -1.48828125 1.515625 C-0.99714844 1.01546875 -0.50601562 0.5153125 0 0 Z " fill="#0649A6" transform="translate(311,86)"/>
<path d="M0 0 C0.66 0 1.32 0 2 0 C2 3.3 2 6.6 2 10 C8.6 10 15.2 10 22 10 C21.67 8.02 21.34 6.04 21 4 C21.99 4.33 22.98 4.66 24 5 C24 6.32 24 7.64 24 9 C24.66 7.02 25.32 5.04 26 3 C28.05164237 6.46214649 28 7.59389235 28 12 C19.09 12 10.18 12 1 12 C0.67 10.35 0.34 8.7 0 7 C-0.66 7 -1.32 7 -2 7 C-1.125 1.125 -1.125 1.125 0 0 Z " fill="#114594" transform="translate(189,82)"/>
<path d="M0 0 C1.60294922 0.04060547 1.60294922 0.04060547 3.23828125 0.08203125 C4.04652344 0.11683594 4.85476562 0.15164062 5.6875 0.1875 C6.6875 3.1875 6.6875 3.1875 5.6875 7.1875 C2.0575 6.8575 -1.5725 6.5275 -5.3125 6.1875 C-5.6425 6.8475 -5.9725 7.5075 -6.3125 8.1875 C-6.9725 8.1875 -7.6325 8.1875 -8.3125 8.1875 C-8.3125 7.1975 -8.3125 6.2075 -8.3125 5.1875 C-9.3025 5.1875 -10.2925 5.1875 -11.3125 5.1875 C-11.3125 4.5275 -11.3125 3.8675 -11.3125 3.1875 C-7.50830714 0.27259898 -4.72343323 -0.15571758 0 0 Z " fill="#0C47A0" transform="translate(247.3125,55.8125)"/>
<path d="M0 0 C0.33 0.99 0.66 1.98 1 3 C0.34 2.67 -0.32 2.34 -1 2 C-0.67 1.34 -0.34 0.68 0 0 Z M-4 3 C-3.01 3.33 -2.02 3.66 -1 4 C-1 4.66 -1 5.32 -1 6 C-0.34 5.67 0.32 5.34 1 5 C1 7.97 1 10.94 1 14 C-0.32 14 -1.64 14 -3 14 C-2.34 14.66 -1.68 15.32 -1 16 C-1 17.32 -1 18.64 -1 20 C-1.99 20.33 -2.98 20.66 -4 21 C-4.73323796 23.01508358 -4.73323796 23.01508358 -5 25 C-6.32 25 -7.64 25 -9 25 C-9 24.34 -9 23.68 -9 23 C-8.34 23 -7.68 23 -7 23 C-6.67 21.02 -6.34 19.04 -6 17 C-5.01 17 -4.02 17 -3 17 C-3.66 16.34 -4.32 15.68 -5 15 C-5.23046875 12.43359375 -5.23046875 12.43359375 -5.1875 9.4375 C-5.18105469 8.44621094 -5.17460937 7.45492187 -5.16796875 6.43359375 C-5 4 -5 4 -4 3 Z " fill="#0949A3" transform="translate(342,86)"/>
<path d="M0 0 C0 0.99 0 1.98 0 3 C-1.093125 3.226875 -2.18625 3.45375 -3.3125 3.6875 C-7.03928444 4.68066889 -7.03928444 4.68066889 -9 7.25 C-10.51838662 11.42556321 -9.71696375 14.39737515 -7.9375 18.375 C-7.628125 18.91125 -7.31875 19.4475 -7 20 C-8.75 20.75 -8.75 20.75 -11 21 C-13.25 19.625 -13.25 19.625 -15 17 C-15.61191003 13.88431133 -15.70070131 11.10565071 -15 8 C-12.6875 6.25 -12.6875 6.25 -10 5 C-8.94895617 3.36504293 -7.94011682 1.70116376 -7 0 C-4.3333581 -1.33332095 -2.83319697 -0.67102033 0 0 Z " fill="#59585C" transform="translate(46,34)"/>
<path d="M0 0 C0.33 0 0.66 0 1 0 C1 7.92 1 15.84 1 24 C4.34125 23.7834375 4.34125 23.7834375 7.75 23.5625 C9.00296875 23.48128906 10.2559375 23.40007812 11.546875 23.31640625 C14.83915005 23.10714854 14.83915005 23.10714854 17.328125 22.40234375 C19 22 19 22 21 23 C22.66194453 23.35613097 24.328451 23.69208308 26 24 C21.0268126 28.08511822 17.37494396 28.12259508 11 28 C11 27.34 11 26.68 11 26 C7.37 26 3.74 26 0 26 C0 17.42 0 8.84 0 0 Z " fill="#668BC7" transform="translate(95,87)"/>
<path d="M0 0 C0.7940625 -0.01675781 1.588125 -0.03351562 2.40625 -0.05078125 C3.0971875 0.06910156 3.788125 0.18898437 4.5 0.3125 C5.16 1.3025 5.82 2.2925 6.5 3.3125 C6.17 4.3025 5.84 5.2925 5.5 6.3125 C4.984375 5.796875 4.46875 5.28125 3.9375 4.75 C0.5289729 2.73984299 -1.73106857 3.51522604 -5.5 4.3125 C-5.54125 5.59125 -5.5825 6.87 -5.625 8.1875 C-5.64820313 8.90679687 -5.67140625 9.62609375 -5.6953125 10.3671875 C-5.68331689 12.55113645 -5.68331689 12.55113645 -3.5 14.3125 C-0.92938689 14.96017793 -0.92938689 14.96017793 1.5 15.3125 C1.17 16.3025 0.84 17.2925 0.5 18.3125 C-4.94585987 17.82842357 -4.94585987 17.82842357 -7.3125 15.625 C-8.79838217 12.73143998 -9.36696345 10.57189552 -9.5 7.3125 C-7.20662426 2.50733179 -5.43346957 0.0264617 0 0 Z " fill="#CACACE" transform="translate(44.5,36.6875)"/>
<path d="M0 0 C0.66 0 1.32 0 2 0 C2.556875 1.03125 3.11375 2.0625 3.6875 3.125 C5.77145129 6.7924555 8.22036927 9.83430945 11 13 C9.8553125 12.6596875 9.8553125 12.6596875 8.6875 12.3125 C6.014688 11.69116529 6.014688 11.69116529 4.3125 13.25 C3.15430906 14.79425458 2.0707479 16.39387815 1 18 C0.34 17.67 -0.32 17.34 -1 17 C-1 16.01 -1 15.02 -1 14 C-3.31 14 -5.62 14 -8 14 C-8 13.67 -8 13.34 -8 13 C-3.71 12.01 0.58 11.02 5 10 C3.35820641 6.87544942 3.35820641 6.87544942 0.8359375 6.26953125 C0.02382813 6.11871094 -0.78828125 5.96789063 -1.625 5.8125 C-2.85089844 5.57466797 -2.85089844 5.57466797 -4.1015625 5.33203125 C-4.72804687 5.22246094 -5.35453125 5.11289062 -6 5 C-6 3.68 -6 2.36 -6 1 C-3.03 1.495 -3.03 1.495 0 2 C0 1.34 0 0.68 0 0 Z " fill="#4F4E53" transform="translate(45,53)"/>
<path d="M0 0 C0.2475 0.53625 0.495 1.0725 0.75 1.625 C2.02682198 4.17719661 2.02682198 4.17719661 4.125 7 C6 10 6 10 6 14 C3.3125 14.3125 3.3125 14.3125 0 14 C-3.64584413 11.09989671 -5.60551748 8.43698984 -7 4 C-5.68 4 -4.36 4 -3 4 C-3 4.99 -3 5.98 -3 7 C-2.34 7 -1.68 7 -1 7 C-1.33 5.68 -1.66 4.36 -2 3 C-1.34 3 -0.68 3 0 3 C0 2.01 0 1.02 0 0 Z " fill="#396DB6" transform="translate(315,101)"/>
<path d="M0 0 C2.31 0 4.62 0 7 0 C7 2.64 7 5.28 7 8 C9.97 8.495 9.97 8.495 13 9 C14 12 14 12 13 15 C11.35 14.67 9.7 14.34 8 14 C8 13.01 8 12.02 8 11 C6.68 10.67 5.36 10.34 4 10 C4 9.34 4 8.68 4 8 C3.34 8 2.68 8 2 8 C2 6.35 2 4.7 2 3 C1.34 3 0.68 3 0 3 C0 2.01 0 1.02 0 0 Z " fill="#403F44" transform="translate(39,67)"/>
<path d="M0 0 C2 2 2 2 2.3125 5 C2.1578125 6.485 2.1578125 6.485 2 8 C-1 10 -1 10 -3.5625 9.75 C-6 9 -6 9 -8 7 C-7.75 3.9375 -7.75 3.9375 -7 1 C-4.48718205 -0.25640898 -2.78302919 -0.20872719 0 0 Z " fill="#C0BFC4" transform="translate(47,41)"/>
<path d="M0 0 C2.17476401 1.54338091 2.81832637 2.63665273 4 5 C4.039992 6.99960012 4.04346799 9.00047242 4 11 C3.01 11 2.02 11 1 11 C0.34 10.01 -0.32 9.02 -1 8 C-1.66 7.67 -2.32 7.34 -3 7 C-5 6 -5 6 -7 3 C-7.99 2.34 -8.98 1.68 -10 1 C-6.82459056 -0.58770472 -3.45809441 -0.41100302 0 0 Z " fill="#1154B3" transform="translate(289,86)"/>
<path d="M0 0 C0.33 0 0.66 0 1 0 C1.33 2.64 1.66 5.28 2 8 C3.32 8 4.64 8 6 8 C6.66 7.01 7.32 6.02 8 5 C8.75 6.6875 8.75 6.6875 9 9 C7.6875 11.75 7.6875 11.75 5 14 C1.62707145 14.42755432 -1.61889171 14.29036235 -5 14 C-4.72285156 13.49210937 -4.44570312 12.98421875 -4.16015625 12.4609375 C-1.9665317 8.2922702 -0.47586845 4.75868447 0 0 Z " fill="#3266B4" transform="translate(118,97)"/>
<path d="M0 0 C0.33 1.65 0.66 3.3 1 5 C0.01 4.67 -0.98 4.34 -2 4 C-2 3.34 -2 2.68 -2 2 C-2.56847656 2.13277344 -3.13695312 2.26554687 -3.72265625 2.40234375 C-4.88087891 2.66724609 -4.88087891 2.66724609 -6.0625 2.9375 C-7.19365234 3.19853516 -7.19365234 3.19853516 -8.34765625 3.46484375 C-11.54118722 4.10919389 -14.77485649 4.53926521 -18 5 C-18 11.6 -18 18.2 -18 25 C-18.33 25 -18.66 25 -19 25 C-19.02901394 21.5625177 -19.04680335 18.12506688 -19.0625 14.6875 C-19.07087891 13.71103516 -19.07925781 12.73457031 -19.08789062 11.72851562 C-19.09111328 10.79072266 -19.09433594 9.85292969 -19.09765625 8.88671875 C-19.10551147 7.59060669 -19.10551147 7.59060669 -19.11352539 6.26831055 C-19 4 -19 4 -18 1 C-11.93303301 0.22959149 -6.11485027 -0.09706112 0 0 Z " fill="#3A68B0" transform="translate(284,59)"/>
<path d="M0 0 C2 1 2 1 3 2 C4.66617115 2.04063832 6.33388095 2.042721 8 2 C7.2575 2.495 6.515 2.99 5.75 3.5 C2.1739753 6.44873572 2.1739753 6.44873572 -1 14 C4.94 14 10.88 14 17 14 C17.33 13.01 17.66 12.02 18 11 C18 12.32 18 13.64 18 15 C11.4 15 4.8 15 -2 15 C-2 11.7 -2 8.4 -2 5 C-2.99 5.33 -3.98 5.66 -5 6 C-3.63016497 2.83884224 -3.0109362 2.0072908 0 0 Z " fill="#6E91C8" transform="translate(193,77)"/>
<path d="M0 0 C1.9375 2.25 1.9375 2.25 3 5 C2.4375 7.25 2.4375 7.25 1 9 C-1.95319818 10.23843794 -2.87438528 10.04187157 -6 9 C-7.1875 5.4375 -7.1875 5.4375 -8 2 C-4.78697711 -0.14201526 -3.73290719 -0.65325876 0 0 Z " fill="#6082B7" transform="translate(174,60)"/>
<path d="M0 0 C0.66 0.165 1.32 0.33 2 0.5 C7.80921953 1.46820325 13.25191935 1.14961613 19 0 C18.67 1.65 18.34 3.3 18 5 C12.06 5 6.12 5 0 5 C0 3.35 0 1.7 0 0 Z " fill="#CDCDD1" transform="translate(31,124)"/>
<path d="M0 0 C0.33 0 0.66 0 1 0 C1 1.65 1 3.3 1 5 C1.66 5 2.32 5 3 5 C3.33 5.66 3.66 6.32 4 7 C4.99 7.33 5.98 7.66 7 8 C7 8.99 7 9.98 7 11 C7.66 11 8.32 11 9 11 C9.33 10.34 9.66 9.68 10 9 C10 9.99 10 10.98 10 12 C10.66 12 11.32 12 12 12 C12.33 10.68 12.66 9.36 13 8 C14 11 14 11 13 14 C11.60335892 13.88437394 10.20768801 13.757008 8.8125 13.625 C7.64654297 13.52058594 7.64654297 13.52058594 6.45703125 13.4140625 C4 13 4 13 -1 11 C-0.67 7.37 -0.34 3.74 0 0 Z " fill="#47464C" transform="translate(40,70)"/>
<path d="M0 0 C0.76183594 -0.01417969 1.52367187 -0.02835937 2.30859375 -0.04296875 C4.79597315 0.21137334 6.41058106 0.94732804 8.5625 2.1875 C7.9025 2.8475 7.2425 3.5075 6.5625 4.1875 C6.2325 3.8575 5.9025 3.5275 5.5625 3.1875 C5.2325 3.8475 4.9025 4.5075 4.5625 5.1875 C0.34777823 6.63254746 -2.3741946 5.79392307 -6.4375 4.1875 C-6.7675 4.8475 -7.0975 5.5075 -7.4375 6.1875 C-7.7675 5.1975 -8.0975 4.2075 -8.4375 3.1875 C-6.69235537 -0.30278927 -3.51916008 0.02967251 0 0 Z " fill="#4574B8" transform="translate(202.4375,74.8125)"/>
<path d="M0 0 C1.32 2.31 2.64 4.62 4 7 C1.525 8.485 1.525 8.485 -1 10 C-1.8971875 8.7934375 -1.8971875 8.7934375 -2.8125 7.5625 C-4.80947276 4.77672016 -4.80947276 4.77672016 -8 4 C-8.33 3.01 -8.66 2.02 -9 1 C-6.04335481 -0.4783226 -3.25770263 -0.06032783 0 0 Z " fill="#4A7BBF" transform="translate(335,76)"/>
<path d="M0 0 C1.32 0.66 2.64 1.32 4 2 C3.67 2.99 3.34 3.98 3 5 C2.01 5 1.02 5 0 5 C0 8.63 0 12.26 0 16 C-2.64 16 -5.28 16 -8 16 C-8.33 17.32 -8.66 18.64 -9 20 C-9.66 20 -10.32 20 -11 20 C-10.67 18.68 -10.34 17.36 -10 16 C-10.66 16 -11.32 16 -12 16 C-12.33 16.99 -12.66 17.98 -13 19 C-13.66 18.67 -14.32 18.34 -15 18 C-15 17.01 -15 16.02 -15 15 C-10.38 15 -5.76 15 -1 15 C-1.33 13.68 -1.66 12.36 -2 11 C-2.12205329 8.32459184 -2.04467313 5.68038762 -2 3 C-1.34 2.67 -0.68 2.34 0 2 C0 1.34 0 0.68 0 0 Z " fill="#4C4C4F" transform="translate(71,51)"/>
<path d="M0 0 C0 1.98 0 3.96 0 6 C-3.96 6 -7.92 6 -12 6 C-8.91032455 -0.17935091 -6.52232324 -0.24612541 0 0 Z " fill="#D1D1D2" transform="translate(75,122)"/>
<path d="M0 0 C0.33 1.32 0.66 2.64 1 4 C0.34 4 -0.32 4 -1 4 C-0.67 5.98 -0.34 7.96 0 10 C-3.42232972 11.14077657 -6.08673217 11.09815117 -9.6875 11.0625 C-11.45673828 11.04896484 -11.45673828 11.04896484 -13.26171875 11.03515625 C-14.16535156 11.02355469 -15.06898438 11.01195313 -16 11 C-15.01 10.67 -14.02 10.34 -13 10 C-13 9.01 -13 8.02 -13 7 C-11.7625 6.9175 -10.525 6.835 -9.25 6.75 C-6.10935789 6.36645256 -5.12717461 6.10108751 -2.5625 4.0625 C-0.96781864 2.08866752 -0.96781864 2.08866752 0 0 Z " fill="#426EAF" transform="translate(334,105)"/>
<path d="M0 0 C5.30839021 1.34959073 8.64114721 3.36797081 11.6875 7.9375 C11.8828125 10.41796875 11.8828125 10.41796875 11.8125 13.125 C11.79445313 14.02605469 11.77640625 14.92710938 11.7578125 15.85546875 C11.73460938 16.54253906 11.71140625 17.22960937 11.6875 17.9375 C11.3575 17.9375 11.0275 17.9375 10.6875 17.9375 C10.3575 14.9675 10.0275 11.9975 9.6875 8.9375 C9.0275 8.9375 8.3675 8.9375 7.6875 8.9375 C5.6875 5.9375 5.6875 5.9375 4.6875 2.9375 C2.3775 2.9375 0.0675 2.9375 -2.3125 2.9375 C-2.3125 3.5975 -2.3125 4.2575 -2.3125 4.9375 C-3.6325 4.2775 -4.9525 3.6175 -6.3125 2.9375 C-4.3597255 0.0657728 -3.55006733 -0.0669824 0 0 Z " fill="#4D77B6" transform="translate(113.3125,59.0625)"/>
<path d="M0 0 C0.33 1.32 0.66 2.64 1 4 C1.66 3.67 2.32 3.34 3 3 C3.99 3.33 4.98 3.66 6 4 C6 3.34 6 2.68 6 2 C6.99 2 7.98 2 9 2 C7.59561113 5.39393978 6.13616902 7.08345227 3 9 C-0.125 10.25 -0.125 10.25 -3 11 C-3.66 10.67 -4.32 10.34 -5 10 C-3.66511872 6.40608886 -2.03977277 3.24509304 0 0 Z " fill="#3C6CB5" transform="translate(115,75)"/>
<path d="M0 0 C6.6 0.6 6.6 0.6 9 3 C9.75 5 9.75 5 10 7 C9.34 7.66 8.68 8.32 8 9 C7.01 8.67 6.02 8.34 5 8 C4.67 8.66 4.34 9.32 4 10 C2.19933758 7.0534615 0.49836105 4.11198065 -1 1 C-0.67 0.67 -0.34 0.34 0 0 Z " fill="#3269B6" transform="translate(111,61)"/>
<path d="M0 0 C2.97 0.495 2.97 0.495 6 1 C6.05383848 3.45862401 6.09359038 5.9160755 6.125 8.375 C6.14175781 9.07367188 6.15851562 9.77234375 6.17578125 10.4921875 C6.19344267 12.32897486 6.10303261 14.16601963 6 16 C5.34 16.66 4.68 17.32 4 18 C3.01 18 2.02 18 1 18 C1.09539063 17.32453125 1.19078125 16.6490625 1.2890625 15.953125 C1.39992187 15.06109375 1.51078125 14.1690625 1.625 13.25 C1.74101563 12.36828125 1.85703125 11.4865625 1.9765625 10.578125 C2.00258243 7.7159332 1.32103136 6.48071539 0 4 C0 2.68 0 1.36 0 0 Z " fill="#AAA9AD" transform="translate(55,66)"/>
<path d="M0 0 C0 1.98 0 3.96 0 6 C-0.969375 6.2475 -1.93875 6.495 -2.9375 6.75 C-3.948125 7.1625 -4.95875 7.575 -6 8 C-6.96877057 10.03243548 -6.96877057 10.03243548 -7 12 C-8.98 11.34 -10.96 10.68 -13 10 C-13 9.01 -13 8.02 -13 7 C-11.02 7 -9.04 7 -7 7 C-6.9175 6.401875 -6.835 5.80375 -6.75 5.1875 C-5.6373204 1.94218449 -3.50829352 0 0 0 Z " fill="#3163AB" transform="translate(361,69)"/>
<path d="M0 0 C-2.39763185 2.39763185 -3.33273498 2.34280586 -6.625 2.625 C-7.44226562 2.69976562 -8.25953125 2.77453125 -9.1015625 2.8515625 C-9.72804688 2.90054688 -10.35453125 2.94953125 -11 3 C-11.12632813 3.61359375 -11.25265625 4.2271875 -11.3828125 4.859375 C-12.22495551 7.78022546 -13.6795119 9.0890098 -16 11 C-16.99 11 -17.98 11 -19 11 C-17.66043825 6.31153387 -15.12218069 3.48052448 -11 1 C-7.13061065 -0.48485073 -4.04575497 -1.34858499 0 0 Z " fill="#CFCED2" transform="translate(50,31)"/>
<path d="M0 0 C0.99 0.33 1.98 0.66 3 1 C2.01 1.66 1.02 2.32 0 3 C-0.2502157 6.08365871 -0.2502157 6.08365871 0 9 C3.58327753 10.00217064 3.58327753 10.00217064 7 9 C7 6.69 7 4.38 7 2 C6.01 1.67 5.02 1.34 4 1 C4 0.67 4 0.34 4 0 C5.65 0 7.3 0 9 0 C10.32 7.2 10.32 7.2 9 10.5 C7 12 7 12 3.5 12.5 C0 12 0 12 -2 10.375 C-3.34180884 7.18820399 -2.92947204 5.28890107 -2 2 C-1.34 1.34 -0.68 0.68 0 0 Z " fill="#C3C2C6" transform="translate(37,113)"/>
<path d="M0 0 C2 3 2 3 2 9 C11.9 8.505 11.9 8.505 22 8 C22 8.66 22 9.32 22 10 C18.79224458 10.19840395 15.58379499 10.38175425 12.375 10.5625 C11.47136719 10.61857422 10.56773438 10.67464844 9.63671875 10.73242188 C4.91943783 10.99066718 0.65068353 11.04292737 -4 10 C-3.34 9.67 -2.68 9.34 -2 9 C-1.31270746 6.88153715 -1.31270746 6.88153715 -0.875 4.4375 C-0.70742188 3.61121094 -0.53984375 2.78492187 -0.3671875 1.93359375 C-0.24601562 1.29550781 -0.12484375 0.65742187 0 0 Z " fill="#69686D" transform="translate(28,120)"/>
<path d="M0 0 C0.33 0.66 0.66 1.32 1 2 C1.66 2 2.32 2 3 2 C3 2.66 3 3.32 3 4 C1.68 4 0.36 4 -1 4 C-0.67 4.66 -0.34 5.32 0 6 C0.66 6 1.32 6 2 6 C2 6.66 2 7.32 2 8 C0.35 8.33 -1.3 8.66 -3 9 C-2.01 10.32 -1.02 11.64 0 13 C-3.63 12.01 -7.26 11.02 -11 10 C-11 9.67 -11 9.34 -11 9 C-9.35 9 -7.7 9 -6 9 C-6 8.34 -6 7.68 -6 7 C-6.66 6.34 -7.32 5.68 -8 5 C-7.05125 4.54625 -6.1025 4.0925 -5.125 3.625 C-1.99686321 2.19761746 -1.99686321 2.19761746 0 0 Z " fill="#729BD3" transform="translate(284,78)"/>
<path d="M0 0 C7.78593716 1.61088355 15.37428218 3.76543688 23 6 C23 6.33 23 6.66 23 7 C14.75569133 6.52087184 6.99955473 5.02214499 -1 3 C-0.67 2.01 -0.34 1.02 0 0 Z " fill="#CAC9CE" transform="translate(39,81)"/>
<path d="M0 0 C0.99 0.33 1.98 0.66 3 1 C2.85769192 2.41702513 2.71099254 3.8336096 2.5625 5.25 C2.48128906 6.03890625 2.40007813 6.8278125 2.31640625 7.640625 C2.02365007 9.82364639 1.57935581 11.8773182 1 14 C1.99 14.33 2.98 14.66 4 15 C1 16 1 16 -1.1875 15.0625 C-1.785625 14.711875 -2.38375 14.36125 -3 14 C-2.69249629 11.85344499 -2.3788634 9.70776715 -2.0625 7.5625 C-1.88847656 6.36753906 -1.71445312 5.17257813 -1.53515625 3.94140625 C-1 1 -1 1 0 0 Z " fill="#59585D" transform="translate(55,70)"/>
<path d="M0 0 C-0.639375 0.28875 -1.27875 0.5775 -1.9375 0.875 C-4.15206079 1.82823451 -4.15206079 1.82823451 -5 4 C-7.62581138 5.57548683 -8.87099787 6 -12 6 C-12 5.34 -12 4.68 -12 4 C-13.98 4.33 -15.96 4.66 -18 5 C-13.37393237 -0.65408266 -6.68894708 -0.26755788 0 0 Z " fill="#547CB9" transform="translate(332,75)"/>
<path d="M0 0 C0 0.33 0 0.66 0 1 C-0.65226562 1.13535156 -1.30453125 1.27070313 -1.9765625 1.41015625 C-10.30863015 3.4624502 -13.38900586 7.0835088 -18 14 C-18 10.09686543 -17.87611052 7.99986604 -15.2578125 5.01171875 C-9.98018501 0.34304828 -7.14582755 -1.42916551 0 0 Z " fill="#656567" transform="translate(47,30)"/>
<path d="M0 0 C0.625 1.8125 0.625 1.8125 1 4 C0.01 5.485 0.01 5.485 -1 7 C-1.16699232 9.87478167 -1.16699232 9.87478167 -1 13 C-0.77777778 18.66666667 -0.77777778 18.66666667 -3 22 C-4.2118312 14.32020226 -4.00881128 8.23902119 -1 1 C-0.67 0.67 -0.34 0.34 0 0 Z " fill="#5C82B8" transform="translate(310,83)"/>
<path d="M0 0 C0.70125 0.721875 1.4025 1.44375 2.125 2.1875 C4.04435624 4.12872925 6.02991567 5.83012515 8.1875 7.5 C10.98087068 9.98299616 11.99005692 11.46519923 13 15 C12.34 15.66 11.68 16.32 11 17 C10.71125 16.154375 10.4225 15.30875 10.125 14.4375 C7.70753691 9.44776092 2.53063925 6.87308831 -2 4 C-1.34 3.67 -0.68 3.34 0 3 C0 2.01 0 1.02 0 0 Z " fill="#727275" transform="translate(63,86)"/>
<path d="M0 0 C1 3 1 3 0.0625 5.1875 C-0.4634375 6.0846875 -0.4634375 6.0846875 -1 7 C0.32 7.33 1.64 7.66 3 8 C3.33 9.32 3.66 10.64 4 12 C1.125 12.125 1.125 12.125 -2 12 C-2.66 11.34 -3.32 10.68 -4 10 C-3.7578125 8.0546875 -3.7578125 8.0546875 -3.125 5.875 C-2.92132813 5.15054688 -2.71765625 4.42609375 -2.5078125 3.6796875 C-2.34023438 3.12539062 -2.17265625 2.57109375 -2 2 C-1.34 2 -0.68 2 0 2 C0 1.34 0 0.68 0 0 Z " fill="#838386" transform="translate(39,77)"/>
<path d="M0 0 C0.66 0 1.32 0 2 0 C3.65 3.3 5.3 6.6 7 10 C5.68 10.33 4.36 10.66 3 11 C0.6875 9.5 0.6875 9.5 -1 7 C-0.75 3.25 -0.75 3.25 0 0 Z " fill="#757579" transform="translate(32,44)"/>
<path d="M0 0 C2.97 0 5.94 0 9 0 C7.02 2.97 7.02 2.97 5 6 C5.99 6.99 6.98 7.98 8 9 C7.67 9.99 7.34 10.98 7 12 C6.34 11.01 5.68 10.02 5 9 C3.989375 8.67 2.97875 8.34 1.9375 8 C0.968125 7.67 -0.00125 7.34 -1 7 C-1.33 6.01 -1.66 5.02 -2 4 C0.31 3.34 2.62 2.68 5 2 C3.35 1.67 1.7 1.34 0 1 C0 0.67 0 0.34 0 0 Z " fill="#323236" transform="translate(44,29)"/>
<path d="M0 0 C2.0625 0.4375 2.0625 0.4375 4 1 C4.33 2.65 4.66 4.3 5 6 C0.25 7.125 0.25 7.125 -2 6 C-1.125 1.125 -1.125 1.125 0 0 Z " fill="#6D6C71" transform="translate(43,42)"/>
<path d="M0 0 C1.65 0 3.3 0 5 0 C5 0.66 5 1.32 5 2 C8.465 1.505 8.465 1.505 12 1 C11.67 1.99 11.34 2.98 11 4 C7.04 4 3.08 4 -1 4 C-0.67 2.68 -0.34 1.36 0 0 Z " fill="#0748A4" transform="translate(196,111)"/>
<path d="M0 0 C0.99 0 1.98 0 3 0 C4.80411967 2.75924185 5.0127245 3.88972103 4.625 7.25 C4.41875 8.1575 4.2125 9.065 4 10 C2 7 2 7 2 5 C1.34 5 0.68 5 0 5 C-0.33 6.32 -0.66 7.64 -1 9 C-1.625 5.625 -1.625 5.625 -2 2 C-1.34 1.34 -0.68 0.68 0 0 Z " fill="#2461B7" transform="translate(124,94)"/>
<path d="M0 0 C2.375 1.25 2.375 1.25 3.375 4.25 C2.4375 6.9375 2.4375 6.9375 1.375 9.25 C0.776875 8.46625 0.17875 7.6825 -0.4375 6.875 C-2.53585249 4.10425677 -2.53585249 4.10425677 -5.625 2.25 C-5.625 1.59 -5.625 0.93 -5.625 0.25 C-2.625 -0.75 -2.625 -0.75 0 0 Z " fill="#3368B7" transform="translate(116.625,87.75)"/>
<path d="M0 0 C0.66 0 1.32 0 2 0 C2 0.66 2 1.32 2 2 C2.70125 2.061875 3.4025 2.12375 4.125 2.1875 C8.0332733 3.29201202 10.00357248 5.28230992 13 8 C12.67 8.66 12.34 9.32 12 10 C10.68 10 9.36 10 8 10 C8 8.35 8 6.7 8 5 C4.7 4.67 1.4 4.34 -2 4 C-1.34 2.68 -0.68 1.36 0 0 Z " fill="#6089C1" transform="translate(114,84)"/>
<path d="M0 0 C1.2065625 0.0309375 1.2065625 0.0309375 2.4375 0.0625 C2.81968767 1.71864657 3.15145102 3.38707024 3.4375 5.0625 C2.4375 6.0625 2.4375 6.0625 -0.125 6.125 C-1.3315625 6.0940625 -1.3315625 6.0940625 -2.5625 6.0625 C-2.94468767 4.40635343 -3.27645102 2.73792976 -3.5625 1.0625 C-2.5625 0.0625 -2.5625 0.0625 0 0 Z " fill="#D4D4D4" transform="translate(40.5625,115.9375)"/>
<path d="M0 0 C2 1.5 2 1.5 3 3 C-0.75 4.125 -0.75 4.125 -3 3 C-3 3.66 -3 4.32 -3 5 C-5.49361571 3.79618552 -7.68143083 2.54571278 -10 1 C-6.82975235 -0.58512383 -3.45332972 -0.42372144 0 0 Z " fill="#2258A6" transform="translate(289,86)"/>
<path d="M0 0 C0.56654297 0.72123047 0.56654297 0.72123047 1.14453125 1.45703125 C3.64531405 3.53662958 5.47306804 3.49841577 8.6875 3.6875 C9.68136719 3.75324219 10.67523438 3.81898437 11.69921875 3.88671875 C12.45847656 3.92410156 13.21773437 3.96148437 14 4 C10.7321794 6.17854707 7.61941735 7.49760034 4 9 C0 4.5 0 4.5 0 0 Z " fill="#648BC6" transform="translate(145,77)"/>
<path d="M0 0 C0.33 0.66 0.66 1.32 1 2 C0.0625 4.625 0.0625 4.625 -1 7 C-2.98 7 -4.96 7 -7 7 C-6.34 6.67 -5.68 6.34 -5 6 C-5 5.34 -5 4.68 -5 4 C-9.29 4 -13.58 4 -18 4 C-18 3.67 -18 3.34 -18 3 C-17.03578125 2.95101562 -16.0715625 2.90203125 -15.078125 2.8515625 C-13.81484375 2.77679688 -12.5515625 2.70203125 -11.25 2.625 C-9.99703125 2.55539063 -8.7440625 2.48578125 -7.453125 2.4140625 C-4.39001879 2.04676696 -2.58025734 1.60288714 0 0 Z " fill="#6C90C5" transform="translate(284,108)"/>
<path d="M0 0 C1.32 1.32 2.64 2.64 4 4 C3.236875 3.773125 2.47375 3.54625 1.6875 3.3125 C-0.985312 2.69116529 -0.985312 2.69116529 -2.6875 4.25 C-3.84569094 5.79425458 -4.9292521 7.39387815 -6 9 C-6.66 8.67 -7.32 8.34 -8 8 C-8 7.01 -8 6.02 -8 5 C-10.31 5 -12.62 5 -15 5 C-15 4.67 -15 4.34 -15 4 C-14.08476563 3.79503906 -13.16953125 3.59007813 -12.2265625 3.37890625 C-11.03804687 3.10949219 -9.84953125 2.84007813 -8.625 2.5625 C-6.84996094 2.16224609 -6.84996094 2.16224609 -5.0390625 1.75390625 C-2.10505419 1.14365305 -2.10505419 1.14365305 0 0 Z " fill="#313134" transform="translate(52,62)"/>
<path d="M0 0 C0.66 0 1.32 0 2 0 C2 3.3 2 6.6 2 10 C3.65 10 5.3 10 7 10 C7 10.33 7 10.66 7 11 C5.02 11 3.04 11 1 11 C0.67 9.68 0.34 8.36 0 7 C-0.66 7 -1.32 7 -2 7 C-1.125 1.125 -1.125 1.125 0 0 Z " fill="#0948A5" transform="translate(189,82)"/>
<path d="M0 0 C0.99 0.33 1.98 0.66 3 1 C1.60364382 4.37452744 0.1393647 6.11638118 -3 8 C-5.75 8.6875 -5.75 8.6875 -8 9 C-8 7.68 -8 6.36 -8 5 C-6.02 5.495 -6.02 5.495 -4 6 C-3.67 5.01 -3.34 4.02 -3 3 C-2.01 3.33 -1.02 3.66 0 4 C0 2.68 0 1.36 0 0 Z " fill="#3A6AB1" transform="translate(291,76)"/>
<path d="M0 0 C0 0.99 0 1.98 0 3 C0.66 3 1.32 3 2 3 C2.1875 5.375 2.1875 5.375 2 8 C1.01 8.66 0.02 9.32 -1 10 C-1 8.35 -1 6.7 -1 5 C-1.66 4.67 -2.32 4.34 -3 4 C-3.33 4.66 -3.66 5.32 -4 6 C-4.33 4.35 -4.66 2.7 -5 1 C-3 0 -3 0 0 0 Z " fill="#1858B1" transform="translate(213,82)"/>
<path d="M0 0 C3.9414465 5.91216975 3.07704869 12.29836372 2 19 C1.67 19 1.34 19 1 19 C0.9729957 17.54176788 0.95360213 16.08339325 0.9375 14.625 C0.92589844 13.81289062 0.91429687 13.00078125 0.90234375 12.1640625 C1 10 1 10 2 8 C1.34 8 0.68 8 0 8 C-2 5 -2 5 -1.6875 2.875 C-1 1 -1 1 0 0 Z " fill="#275CAB" transform="translate(313,81)"/>
<path d="M0 0 C0.66 0.66 1.32 1.32 2 2 C2.66 1.67 3.32 1.34 4 1 C4.33 3.31 4.66 5.62 5 8 C3.02 8 1.04 8 -1 8 C-0.67 5.36 -0.34 2.72 0 0 Z " fill="#1555AD" transform="translate(286,72)"/>
<path d="M0 0 C0.515625 0.309375 1.03125 0.61875 1.5625 0.9375 C4.66665423 2.29059287 7.65115007 2.61359424 11 3 C11 3.66 11 4.32 11 5 C8.36 5 5.72 5 3 5 C2.67 5.66 2.34 6.32 2 7 C1.34 7 0.68 7 0 7 C0 6.01 0 5.02 0 4 C-0.99 4 -1.98 4 -3 4 C-3 3.34 -3 2.68 -3 2 C-2.01 1.34 -1.02 0.68 0 0 Z " fill="#547CBA" transform="translate(239,57)"/>
<path d="M0 0 C0.33 0 0.66 0 1 0 C1.33 4.29 1.66 8.58 2 13 C2.66 13 3.32 13 4 13 C4 14.32 4 15.64 4 17 C2.1875 17.625 2.1875 17.625 0 18 C-0.99 17.34 -1.98 16.68 -3 16 C-1.68 15.67 -0.36 15.34 1 15 C0.34 14.34 -0.32 13.68 -1 13 C-0.9765625 9.9609375 -0.9765625 9.9609375 -0.625 6.375 C-0.51414063 5.18648438 -0.40328125 3.99796875 -0.2890625 2.7734375 C-0.19367187 1.85820313 -0.09828125 0.94296875 0 0 Z " fill="#3A393D" transform="translate(59,72)"/>
<path d="M0 0 C0.268125 0.556875 0.53625 1.11375 0.8125 1.6875 C1.204375 2.450625 1.59625 3.21375 2 4 C2.350625 4.886875 2.70125 5.77375 3.0625 6.6875 C5.38695887 9.46185413 6.20129428 9.43000094 9.6875 9.8125 C11.1238593 9.89726123 12.56152439 9.96682761 14 10 C14 10.33 14 10.66 14 11 C10.95738783 11.72916632 8.13283228 12.20990501 5 12 C1.84280539 9.23745472 0.36811014 7.18321116 -0.875 3.1875 C-0.91625 2.465625 -0.9575 1.74375 -1 1 C-0.67 0.67 -0.34 0.34 0 0 Z " fill="#6C6C6E" transform="translate(29,55)"/>
<path d="M0 0 C0.78375 0.04125 1.5675 0.0825 2.375 0.125 C2.375 2.105 2.375 4.085 2.375 6.125 C0.725 6.125 -0.925 6.125 -2.625 6.125 C-3.285 4.805 -3.945 3.485 -4.625 2.125 C-2.625 0.125 -2.625 0.125 0 0 Z " fill="#5C5C5F" transform="translate(63.625,40.875)"/>
<path d="M0 0 C0.33 0 0.66 0 1 0 C1 1.65 1 3.3 1 5 C0.01 5 -0.98 5 -2 5 C-2.33 6.32 -2.66 7.64 -3 9 C-3 8.34 -3 7.68 -3 7 C-4.4540625 6.814375 -4.4540625 6.814375 -5.9375 6.625 C-6.948125 6.41875 -7.95875 6.2125 -9 6 C-9.33 5.34 -9.66 4.68 -10 4 C-6.97265625 3.75585938 -6.97265625 3.75585938 -3.9453125 3.51171875 C-1.60480784 3.12606964 -1.60480784 3.12606964 0 0 Z " fill="#2158A6" transform="translate(234,73)"/>
<path d="M0 0 C0.99 0.33 1.98 0.66 3 1 C2.67 2.32 2.34 3.64 2 5 C1.01 5 0.02 5 -1 5 C-1 5.99 -1 6.98 -1 8 C-1.66 8 -2.32 8 -3 8 C-3.1875 5.125 -3.1875 5.125 -3 2 C-2.01 1.34 -1.02 0.68 0 0 Z " fill="#D5D5D7" transform="translate(51,64)"/>
<path d="M0 0 C1.9375 0.6875 1.9375 0.6875 2.9375 2.6875 C-0.69673209 5.01340854 -3.83338331 4.85015833 -8.0625 4.6875 C-3.07528772 -0.46595269 -3.07528772 -0.46595269 0 0 Z " fill="#3769B3" transform="translate(288.0625,109.3125)"/>
<path d="M0 0 C0 2.97 0 5.94 0 9 C-1.32 8.67 -2.64 8.34 -4 8 C-4.1875 5.125 -4.1875 5.125 -4 2 C-1 0 -1 0 0 0 Z " fill="#014AB1" transform="translate(343,91)"/>
<path d="M0 0 C3.3 0.33 6.6 0.66 10 1 C9.67 2.65 9.34 4.3 9 6 C8.01 6.33 7.02 6.66 6 7 C5.38125 6.21625 4.7625 5.4325 4.125 4.625 C2.10141339 2.03162353 2.10141339 2.03162353 0 0 Z " fill="#CECECF" transform="translate(44,87)"/>
<path d="M0 0 C3.3 0 6.6 0 10 0 C10 0.66 10 1.32 10 2 C6.37 2.66 2.74 3.32 -1 4 C-0.67 2.68 -0.34 1.36 0 0 Z " fill="#3A6BAF" transform="translate(97,60)"/>
<path d="M0 0 C0 1.32 0 2.64 0 4 C-1.98 4.66 -3.96 5.32 -6 6 C-6 5.01 -6 4.02 -6 3 C-6.66 2.34 -7.32 1.68 -8 1 C-5.10765685 0.17361624 -3.11257569 0 0 0 Z " fill="#698CBF" transform="translate(216,109)"/>
<path d="M0 0 C-0.33 0.66 -0.66 1.32 -1 2 C-4.96 2 -8.92 2 -13 2 C-13 1.34 -13 0.68 -13 0 C-11.58456585 -0.19658808 -10.16755969 -0.38187546 -8.75 -0.5625 C-7.96109375 -0.66691406 -7.1721875 -0.77132812 -6.359375 -0.87890625 C-3.99467126 -1.00027349 -2.2488963 -0.69633257 0 0 Z " fill="#1B4A8B" transform="translate(279,85)"/>
<path d="M0 0 C0.66 0 1.32 0 2 0 C1.66275164 3.11954738 1.3790035 4.6209965 -0.875 6.875 C-1.57625 7.24625 -2.2775 7.6175 -3 8 C-3.99 7.67 -4.98 7.34 -6 7 C-6 6.34 -6 5.68 -6 5 C-5.01 4.67 -4.02 4.34 -3 4 C-2.34 4.33 -1.68 4.66 -1 5 C-0.67 3.35 -0.34 1.7 0 0 Z " fill="#2B5EAC" transform="translate(338,106)"/>
<path d="M0 0 C0.33 0.99 0.66 1.98 1 3 C1.66 3 2.32 3 3 3 C3.33 2.34 3.66 1.68 4 1 C4 1.99 4 2.98 4 4 C4.66 4 5.32 4 6 4 C6.33 2.68 6.66 1.36 7 0 C8 3 8 3 7 6 C4.69 5.67 2.38 5.34 0 5 C0 3.35 0 1.7 0 0 Z " fill="#26252B" transform="translate(46,78)"/>
<path d="M0 0 C4.875 1.75 4.875 1.75 6 4 C6.06996014 5.70702735 6.08440154 7.41668003 6.0625 9.125 C6.05347656 10.03507812 6.04445313 10.94515625 6.03515625 11.8828125 C6.02355469 12.58148438 6.01195312 13.28015625 6 14 C5.67 14 5.34 14 5 14 C4.67 11.03 4.34 8.06 4 5 C3.34 5 2.68 5 2 5 C2 4.01 2 3.02 2 2 C1.34 2 0.68 2 0 2 C0 1.34 0 0.68 0 0 Z " fill="#5179B5" transform="translate(289,63)"/>
<path d="M0 0 C0.99 0 1.98 0 3 0 C3 1.65 3 3.3 3 5 C2.34 5 1.68 5 1 5 C1 5.66 1 6.32 1 7 C-0.98 7.99 -0.98 7.99 -3 9 C-3 7.68 -3 6.36 -3 5 C-2.34 5 -1.68 5 -1 5 C-0.67 3.35 -0.34 1.7 0 0 Z " fill="#0647A3" transform="translate(236,61)"/>
<path d="M0 0 C0.33 1.32 0.66 2.64 1 4 C0.34 4 -0.32 4 -1 4 C-0.67 5.98 -0.34 7.96 0 10 C-3.37462715 9.45276317 -5.08235 8.9451 -8 7 C-7.236875 6.773125 -6.47375 6.54625 -5.6875 6.3125 C-2.45263699 4.73268318 -1.58358642 3.16717283 0 0 Z " fill="#6E8FC6" transform="translate(334,105)"/>
<path d="M0 0 C0.93423645 3.01031744 1.04449911 3.86650268 0 7 C-1.98 6.34 -3.96 5.68 -6 5 C-6 4.01 -6 3.02 -6 2 C-4.02 2 -2.04 2 0 2 C0 1.34 0 0.68 0 0 Z " fill="#718FBD" transform="translate(354,74)"/>
<path d="M0 0 C1.65 0.33 3.3 0.66 5 1 C5 2.32 5 3.64 5 5 C3.02 5 1.04 5 -1 5 C-0.67 3.35 -0.34 1.7 0 0 Z " fill="#0448AB" transform="translate(170,62)"/>
<path d="M0 0 C3.96 0 7.92 0 12 0 C13.04449911 3.13349732 12.93423645 3.98968256 12 7 C11.34 7 10.68 7 10 7 C10 5.02 10 3.04 10 1 C6.7 1 3.4 1 0 1 C0 0.67 0 0.34 0 0 Z " fill="#6D8CBE" transform="translate(241,56)"/>
<path d="M0 0 C2.4375 0.375 2.4375 0.375 5 1 C5.33 1.66 5.66 2.32 6 3 C5.67 3.66 5.34 4.32 5 5 C3.35 5 1.7 5 0 5 C0 3.35 0 1.7 0 0 Z " fill="#D6D6D8" transform="translate(31,124)"/>
<path d="M0 0 C2.475 0.495 2.475 0.495 5 1 C5.6875 2.6875 5.6875 2.6875 6 5 C4.5625 7.75 4.5625 7.75 3 10 C2 7 2 7 1.5 4.4375 C1.11057602 2.00585058 1.11057602 2.00585058 0 0 Z " fill="#396BB5" transform="translate(338,99)"/>
<path d="M0 0 C0.33 0.66 0.66 1.32 1 2 C1.66 2 2.32 2 3 2 C3 2.66 3 3.32 3 4 C1.68 4 0.36 4 -1 4 C-1 4.99 -1 5.98 -1 7 C-3.31 6.67 -5.62 6.34 -8 6 C-7.01 5.34 -6.02 4.68 -5 4 C-3.32576317 2.67618483 -1.65788785 1.34423339 0 0 Z " fill="#5E87C2" transform="translate(284,78)"/>
<path d="M0 0 C0.33 0.66 0.66 1.32 1 2 C2.65 2 4.3 2 6 2 C5.01 2.495 5.01 2.495 4 3 C4 4.65 4 6.3 4 8 C3.01 8 2.02 8 1 8 C0.67 5.36 0.34 2.72 0 0 Z " fill="#7F7E84" transform="translate(46,115)"/>
<path d="M0 0 C1.65 0 3.3 0 5 0 C5.33 1.32 5.66 2.64 6 4 C3.69 4 1.38 4 -1 4 C-0.67 2.68 -0.34 1.36 0 0 Z " fill="#3862A7" transform="translate(107,111)"/>
<path d="M0 0 C1 3 1 3 0.1875 4.6875 C-0.204375 5.450625 -0.59625 6.21375 -1 7 C-1.75788886 9.65006775 -2.37333863 12.31430842 -3 15 C-4.02956962 11.80176245 -3.94507949 9.63422687 -3.1875 6.375 C-3.01605469 5.59898438 -2.84460938 4.82296875 -2.66796875 4.0234375 C-2 2 -2 2 0 0 Z " fill="#3C67AC" transform="translate(235,61)"/>
<path d="M0 0 C3.7952131 1.49097658 5.61042731 3.75700849 8 7 C7.67 7.66 7.34 8.32 7 9 C4.03595495 6.19195732 1.55500981 3.81684226 0 0 Z " fill="#4D76B7" transform="translate(335,77)"/>
<path d="M0 0 C3.73639216 1.24546405 4.18756513 2.63404953 6 6 C3.525 7.485 3.525 7.485 1 9 C1.33 6.69 1.66 4.38 2 2 C1.34 2 0.68 2 0 2 C0 1.34 0 0.68 0 0 Z " fill="#1553AA" transform="translate(333,77)"/>
<path d="M0 0 C2.31 0.33 4.62 0.66 7 1 C6.67 1.99 6.34 2.98 6 4 C3.03 3.505 3.03 3.505 0 3 C0 2.01 0 1.02 0 0 Z " fill="#0848A4" transform="translate(111,61)"/>
<path d="M0 0 C0.33 0 0.66 0 1 0 C1.36923077 5.41538462 1.36923077 5.41538462 -0.5 8.375 C-0.995 8.91125 -1.49 9.4475 -2 10 C-2.99 9.67 -3.98 9.34 -5 9 C-4.34 9 -3.68 9 -3 9 C-2.87625 8.071875 -2.7525 7.14375 -2.625 6.1875 C-2 3 -2 3 0 0 Z " fill="#4C4B50" transform="translate(52,42)"/>
<path d="M0 0 C0.99 0 1.98 0 3 0 C1.95125002 2.62187494 1.35068687 3.79371361 -1.125 5.25 C-1.74375 5.4975 -2.3625 5.745 -3 6 C-3.33 4.35 -3.66 2.7 -4 1 C-2.68 1.33 -1.36 1.66 0 2 C0 1.34 0 0.68 0 0 Z " fill="#4A76B8" transform="translate(121,77)"/>
<path d="M0 0 C0.66 0 1.32 0 2 0 C3.32 2.31 4.64 4.62 6 7 C5.01 8.485 5.01 8.485 4 10 C4 9.34 4 8.68 4 8 C3.34 8 2.68 8 2 8 C2 6.35 2 4.7 2 3 C1.34 3 0.68 3 0 3 C0 2.01 0 1.02 0 0 Z " fill="#6A696E" transform="translate(39,67)"/>
<path d="M0 0 C0 0.33 0 0.66 0 1 C-8.03571429 3.27678571 -8.03571429 3.27678571 -12 2 C-7.52828892 -0.66173278 -5.06604612 -1.3268216 0 0 Z " fill="#706F72" transform="translate(47,30)"/>
<path d="M0 0 C2.31 0 4.62 0 7 0 C7 0.99 7 1.98 7 3 C5.02 3 3.04 3 1 3 C0.67 2.01 0.34 1.02 0 0 Z " fill="#2F5FA7" transform="translate(314,112)"/>
<path d="M0 0 C0.99 0.33 1.98 0.66 3 1 C2.25 6.75 2.25 6.75 0 9 C-0.87890625 2.84765625 -0.87890625 2.84765625 -1 1 C-0.67 0.67 -0.34 0.34 0 0 Z " fill="#3569B2" transform="translate(295,99)"/>
<path d="M0 0 C2.62187494 1.04874998 3.79371361 1.64931313 5.25 4.125 C5.4975 4.74375 5.745 5.3625 6 6 C5.01 6.66 4.02 7.32 3 8 C2.01 5.36 1.02 2.72 0 0 Z " fill="#5781C0" transform="translate(291,88)"/>
<path d="M0 0 C0 1.32 0 2.64 0 4 C-1.65 4 -3.3 4 -5 4 C-5.33 3.01 -5.66 2.02 -6 1 C-4 0 -4 0 0 0 Z " fill="#2057A8" transform="translate(332,76)"/>
<path d="M0 0 C1.65 0 3.3 0 5 0 C4.67 2.31 4.34 4.62 4 7 C3.01 6.67 2.02 6.34 1 6 C0.67 4.02 0.34 2.04 0 0 Z " fill="#ACABB0" transform="translate(41,67)"/>
<path d="M0 0 C1.093125 0.226875 2.18625 0.45375 3.3125 0.6875 C3.3125 1.0175 3.3125 1.3475 3.3125 1.6875 C1.3325 2.0175 -0.6475 2.3475 -2.6875 2.6875 C-2.6875 3.3475 -2.6875 4.0075 -2.6875 4.6875 C-4.0075 4.0275 -5.3275 3.3675 -6.6875 2.6875 C-4.58035839 -0.41123767 -3.86755884 -0.32775922 0 0 Z " fill="#5B81BD" transform="translate(113.6875,59.3125)"/>
<path d="M0 0 C0.66 0.33 1.32 0.66 2 1 C1.67 2.98 1.34 4.96 1 7 C0.67 5.68 0.34 4.36 0 3 C-0.66 3 -1.32 3 -2 3 C-2 4.65 -2 6.3 -2 8 C-2.33 8 -2.66 8 -3 8 C-3 5.69 -3 3.38 -3 1 C-2.01 0.67 -1.02 0.34 0 0 Z " fill="#37363A" transform="translate(34,41)"/>
<path d="M0 0 C4.5 3 4.5 3 9 6 C6 7 6 7 3.375 5.8125 C1 4 1 4 0.1875 1.8125 C0.125625 1.214375 0.06375 0.61625 0 0 Z " fill="#698FC7" transform="translate(193,105)"/>
<path d="M0 0 C0.99 0.33 1.98 0.66 3 1 C3 2.32 3 3.64 3 5 C3.99 4.67 4.98 4.34 6 4 C6 4.99 6 5.98 6 7 C4.35 7 2.7 7 1 7 C0.67 4.69 0.34 2.38 0 0 Z " fill="#0648A6" transform="translate(210,86)"/>
<path d="M0 0 C0.99 0 1.98 0 3 0 C3 1.98 3 3.96 3 6 C2.34 6 1.68 6 1 6 C1 5.01 1 4.02 1 3 C0.01 3.33 -0.98 3.66 -2 4 C-1.34 2.68 -0.68 1.36 0 0 Z " fill="#3F6FB5" transform="translate(190,79)"/>
<path d="M0 0 C0 1.65 0 3.3 0 5 C-1.98 5 -3.96 5 -6 5 C-6 4.34 -6 3.68 -6 3 C-5.01 3 -4.02 3 -3 3 C-3 2.34 -3 1.68 -3 1 C-1 0 -1 0 0 0 Z " fill="#0D489F" transform="translate(160,76)"/>
<path d="M0 0 C2.97 0.495 2.97 0.495 6 1 C6 1.66 6 2.32 6 3 C4.35 3 2.7 3 1 3 C0.67 3.66 0.34 4.32 0 5 C-0.33 4.01 -0.66 3.02 -1 2 C-0.67 1.34 -0.34 0.68 0 0 Z " fill="#265AA8" transform="translate(195,76)"/>
<path d="M0 0 C1.65 0 3.3 0 5 0 C5.33 1.65 5.66 3.3 6 5 C4.35 4.67 2.7 4.34 1 4 C0.67 2.68 0.34 1.36 0 0 Z " fill="#9D9DA3" transform="translate(46,77)"/>
<path d="M0 0 C2.1519437 3.22791555 2.20086443 4.28400809 2 8 C1.01 8 0.02 8 -1 8 C-0.67 5.36 -0.34 2.72 0 0 Z " fill="#CBCACF" transform="translate(28,120)"/>
<path d="M0 0 C1.65 0 3.3 0 5 0 C5.33 2.64 5.66 5.28 6 8 C5.34 7.67 4.68 7.34 4 7 C3.375 4.4375 3.375 4.4375 3 2 C2.01 1.67 1.02 1.34 0 1 C0 0.67 0 0.34 0 0 Z " fill="#A8A8AC" transform="translate(41,113)"/>
<path d="M0 0 C-0.33 1.32 -0.66 2.64 -1 4 C-1.99 4 -2.98 4 -4 4 C-4 3.34 -4 2.68 -4 2 C-5.32 1.67 -6.64 1.34 -8 1 C-5.23735711 0.40267181 -2.83967231 0 0 0 Z " fill="#7A94C3" transform="translate(373,111)"/>
<path d="M0 0 C0.33 0 0.66 0 1 0 C1.1546875 1.175625 1.1546875 1.175625 1.3125 2.375 C1.77595022 5.33045181 1.77595022 5.33045181 5 7 C3.68 7.33 2.36 7.66 1 8 C-1 5 -1 5 -0.625 2.3125 C-0.41875 1.549375 -0.2125 0.78625 0 0 Z " fill="#4A75B2" transform="translate(356,107)"/>
<path d="M0 0 C0.99 0.33 1.98 0.66 3 1 C3 2.98 3 4.96 3 7 C2.01 7 1.02 7 0 7 C-0.33 6.34 -0.66 5.68 -1 5 C-0.01 5 0.98 5 2 5 C2 4.34 2 3.68 2 3 C1.34 3 0.68 3 0 3 C0 2.01 0 1.02 0 0 Z " fill="#024BAF" transform="translate(290,90)"/>
<path d="M0 0 C0.66 0 1.32 0 2 0 C3.25664978 2.90600261 4 4.79604584 4 8 C3.01 7.67 2.02 7.34 1 7 C0.67 4.69 0.34 2.38 0 0 Z " fill="#707072" transform="translate(68,43)"/>
<path d="M0 0 C1.60031344 3.20062687 0.03173691 5.72271806 -1 9 C-1.66 9 -2.32 9 -3 9 C-2.5020163 5.26512223 -2.12508244 3.18762365 0 0 Z " fill="#547BB8" transform="translate(187,83)"/>
<path d="M0 0 C2.5 1.8125 2.5 1.8125 5 4 C5 4.99 5 5.98 5 7 C4.01 7 3.02 7 2 7 C2 5.68 2 4.36 2 3 C1.34 3 0.68 3 0 3 C0 2.01 0 1.02 0 0 Z " fill="#4B75BA" transform="translate(211,78)"/>
<path d="" fill="#FFFFFF" transform="translate(0,0)"/>
<path d="" fill="#FFFFFF" transform="translate(0,0)"/>
<path d="" fill="#FFFFFF" transform="translate(0,0)"/>
<path d="" fill="#FFFFFF" transform="translate(0,0)"/>
<path d="" fill="#FFFFFF" transform="translate(0,0)"/>
<path d="" fill="#FFFFFF" transform="translate(0,0)"/>
<path d="" fill="#FFFFFF" transform="translate(0,0)"/>
<path d="" fill="#FFFFFF" transform="translate(0,0)"/>
<path d="" fill="#FFFFFF" transform="translate(0,0)"/>
<path d="" fill="#FFFFFF" transform="translate(0,0)"/>
<path d="" fill="#FFFFFF" transform="translate(0,0)"/>
<path d="" fill="#FFFFFF" transform="translate(0,0)"/>
<path d="" fill="#FFFFFF" transform="translate(0,0)"/>
<path d="" fill="#FFFFFF" transform="translate(0,0)"/>
<path d="" fill="#FFFFFF" transform="translate(0,0)"/>
<path d="" fill="#FFFFFF" transform="translate(0,0)"/>
<path d="" fill="#FFFFFF" transform="translate(0,0)"/>
<path d="" fill="#FFFFFF" transform="translate(0,0)"/>
<path d="" fill="#FFFFFF" transform="translate(0,0)"/>
<path d="" fill="#FFFFFF" transform="translate(0,0)"/>
<path d="" fill="#FFFFFF" transform="translate(0,0)"/>
<path d="" fill="#FFFFFF" transform="translate(0,0)"/>
<path d="" fill="#FFFFFF" transform="translate(0,0)"/>
<path d="" fill="#FFFFFF" transform="translate(0,0)"/>
<path d="" fill="#FFFFFF" transform="translate(0,0)"/>
<path d="" fill="#FFFFFF" transform="translate(0,0)"/>
<path d="" fill="#FFFFFF" transform="translate(0,0)"/>
<path d="" fill="#FFFFFF" transform="translate(0,0)"/>
<path d="" fill="#FFFFFF" transform="translate(0,0)"/>
<path d="" fill="#FFFFFF" transform="translate(0,0)"/>
<path d="" fill="#FFFFFF" transform="translate(0,0)"/>
<path d="" fill="#FFFFFF" transform="translate(0,0)"/>
<path d="" fill="#FFFFFF" transform="translate(0,0)"/>
<path d="" fill="#FFFFFF" transform="translate(0,0)"/>
<path d="" fill="#FFFFFF" transform="translate(0,0)"/>
<path d="" fill="#FFFFFF" transform="translate(0,0)"/>
<path d="" fill="#FFFFFF" transform="translate(0,0)"/>
<path d="" fill="#FFFFFF" transform="translate(0,0)"/>
<path d="" fill="#FFFFFF" transform="translate(0,0)"/>
<path d="" fill="#FFFFFF" transform="translate(0,0)"/>
<path d="" fill="#FFFFFF" transform="translate(0,0)"/>
<path d="" fill="#FFFFFF" transform="translate(0,0)"/>
<path d="" fill="#FFFFFF" transform="translate(0,0)"/>
<path d="" fill="#FFFFFF" transform="translate(0,0)"/>
<path d="" fill="#FFFFFF" transform="translate(0,0)"/>
<path d="" fill="#FFFFFF" transform="translate(0,0)"/>
<path d="" fill="#FFFFFF" transform="translate(0,0)"/>
<path d="" fill="#FFFFFF" transform="translate(0,0)"/>
<path d="" fill="#FFFFFF" transform="translate(0,0)"/>
<path d="" fill="#FFFFFF" transform="translate(0,0)"/>
<path d="" fill="#FFFFFF" transform="translate(0,0)"/>
<path d="" fill="#FFFFFF" transform="translate(0,0)"/>
<path d="" fill="#FFFFFF" transform="translate(0,0)"/>
<path d="" fill="#FFFFFF" transform="translate(0,0)"/>
<path d="" fill="#FFFFFF" transform="translate(0,0)"/>
<path d="" fill="#FFFFFF" transform="translate(0,0)"/>
<path d="" fill="#FFFFFF" transform="translate(0,0)"/>
<path d="" fill="#FFFFFF" transform="translate(0,0)"/>
<path d="" fill="#FFFFFF" transform="translate(0,0)"/>
<path d="" fill="#FFFFFF" transform="translate(0,0)"/>
<path d="" fill="#FFFFFF" transform="translate(0,0)"/>
<path d="" fill="#FFFFFF" transform="translate(0,0)"/>
<path d="" fill="#FFFFFF" transform="translate(0,0)"/>
<path d="" fill="#FFFFFF" transform="translate(0,0)"/>
<path d="" fill="#FFFFFF" transform="translate(0,0)"/>
<path d="" fill="#FFFFFF" transform="translate(0,0)"/>
<path d="" fill="#FFFFFF" transform="translate(0,0)"/>
<path d="" fill="#FFFFFF" transform="translate(0,0)"/>
<path d="" fill="#FFFFFF" transform="translate(0,0)"/>
<path d="" fill="#FFFFFF" transform="translate(0,0)"/>
<path d="" fill="#FFFFFF" transform="translate(0,0)"/>
<path d="" fill="#FFFFFF" transform="translate(0,0)"/>
<path d="" fill="#FFFFFF" transform="translate(0,0)"/>
<path d="" fill="#FFFFFF" transform="translate(0,0)"/>
<path d="" fill="#FFFFFF" transform="translate(0,0)"/>
<path d="" fill="#FFFFFF" transform="translate(0,0)"/>
<path d="" fill="#FFFFFF" transform="translate(0,0)"/>
<path d="" fill="#FFFFFF" transform="translate(0,0)"/>
<path d="" fill="#FFFFFF" transform="translate(0,0)"/>
<path d="" fill="#FFFFFF" transform="translate(0,0)"/>
<path d="" fill="#FFFFFF" transform="translate(0,0)"/>
<path d="" fill="#FFFFFF" transform="translate(0,0)"/>
<path d="" fill="#FFFFFF" transform="translate(0,0)"/>
<path d="" fill="#FFFFFF" transform="translate(0,0)"/>
<path d="" fill="#FFFFFF" transform="translate(0,0)"/>
<path d="" fill="#FFFFFF" transform="translate(0,0)"/>
</svg>
